<?xml version="1.0" encoding="UTF-8"?>
<!DOCTYPE svg PUBLIC "-//W3C//DTD SVG 1.1//EN" "http://www.w3.org/Graphics/SVG/1.1/DTD/svg11.dtd">
<svg xmlns="http://www.w3.org/2000/svg" version="1.1" width="802px" height="660px" style="shape-rendering:geometricPrecision; text-rendering:geometricPrecision; image-rendering:optimizeQuality; fill-rule:evenodd; clip-rule:evenodd" xmlns:xlink="http://www.w3.org/1999/xlink">
<g><path style="opacity:0.69" fill="#eaeaea" d="M 447.5,2.5 C 446.081,3.45115 444.415,3.78448 442.5,3.5C 438.702,2.51658 434.702,2.18325 430.5,2.5C 436.246,0.608285 442.246,0.108285 448.5,1C 447.944,1.38258 447.611,1.88258 447.5,2.5 Z"/></g>
<g><path style="opacity:0.008" fill="#fefffe" d="M 453.5,1.5 C 454.833,2.16667 454.833,2.16667 453.5,1.5 Z"/></g>
<g><path style="opacity:0.008" fill="#fefffe" d="M 456.5,2.5 C 457.833,3.16667 457.833,3.16667 456.5,2.5 Z"/></g>
<g><path style="opacity:1" fill="#0a0a0a" d="M 427.5,2.5 C 428.5,2.5 429.5,2.5 430.5,2.5C 434.702,2.18325 438.702,2.51658 442.5,3.5C 450.518,6.34157 458.185,10.0082 465.5,14.5C 470.837,19.9824 475.837,25.8158 480.5,32C 484.071,34.4206 487.738,36.5873 491.5,38.5C 493.223,40.2181 495.223,41.5514 497.5,42.5C 500.167,45.5 502.833,48.5 505.5,51.5C 507.358,53.8831 508.692,56.5498 509.5,59.5C 510.147,80.5225 509.314,101.522 507,122.5C 502.067,135.566 492.567,142.732 478.5,144C 473.012,147.333 467.678,150.833 462.5,154.5C 459.57,155.299 456.57,155.632 453.5,155.5C 453.167,155.5 452.833,155.5 452.5,155.5C 451.486,154.326 450.153,153.66 448.5,153.5C 446.152,152.048 443.486,151.382 440.5,151.5C 436.837,151.944 433.171,152.278 429.5,152.5C 428.238,159.271 424.238,163.771 417.5,166C 408.279,167.957 398.945,168.957 389.5,169C 386.743,169.938 384.41,171.438 382.5,173.5C 380.304,173.565 378.304,174.232 376.5,175.5C 368.343,176.167 360.343,176.833 352.5,177.5C 349.15,177.665 345.817,177.498 342.5,177C 336.791,174.406 330.791,173.073 324.5,173C 309.478,172.094 294.478,171.927 279.5,172.5C 277.5,171.833 275.5,171.167 273.5,170.5C 267.565,168.04 262.565,164.373 258.5,159.5C 253.379,154.722 249.046,149.388 245.5,143.5C 245.5,142.5 245.5,141.5 245.5,140.5C 245.427,132.146 245.76,123.812 246.5,115.5C 247.298,111.911 248.631,108.578 250.5,105.5C 252.104,104.713 252.771,103.38 252.5,101.5C 255.375,99.7515 256.708,97.0848 256.5,93.5C 255.766,92.2921 255.433,90.9587 255.5,89.5C 257.048,89.1788 257.715,88.1788 257.5,86.5C 258.117,86.3893 258.617,86.056 259,85.5C 259.557,79.5357 261.057,73.8691 263.5,68.5C 266.785,63.5467 270.785,59.2134 275.5,55.5C 275.833,55.5 276.167,55.5 276.5,55.5C 276.56,56.0431 276.893,56.3764 277.5,56.5C 280.033,55.696 282.033,54.3627 283.5,52.5C 285.179,52.7148 286.179,52.0481 286.5,50.5C 286.833,50.5 287.167,50.5 287.5,50.5C 288.46,51.5152 289.627,51.5152 291,50.5C 292.03,50.1639 292.53,49.4972 292.5,48.5C 292.833,48.5 293.167,48.5 293.5,48.5C 293.435,48.9382 293.601,49.2716 294,49.5C 301.205,46.0952 308.705,43.2618 316.5,41C 318.426,40.5776 319.426,39.4109 319.5,37.5C 319.833,37.5 320.167,37.5 320.5,37.5C 320.735,38.0967 321.235,38.4301 322,38.5C 325.048,37.9994 327.548,36.6661 329.5,34.5C 332.054,33.612 334.721,33.2786 337.5,33.5C 339.833,33.5 342.167,33.5 344.5,33.5C 348.982,34.1308 353.315,35.4641 357.5,37.5C 363.123,42.1136 368.789,46.7802 374.5,51.5C 376.262,50.3115 377.262,48.6449 377.5,46.5C 379.924,43.9922 381.59,40.9922 382.5,37.5C 383.906,37.0269 384.573,36.0269 384.5,34.5C 386.822,33.1979 388.155,31.1979 388.5,28.5C 388.5,28.1667 388.5,27.8333 388.5,27.5C 389.497,27.5299 390.164,27.0299 390.5,26C 391.137,23.755 391.97,21.5883 393,19.5C 397.34,14.6242 402.173,10.6242 407.5,7.5C 407.833,7.5 408.167,7.5 408.5,7.5C 415.351,7.36639 421.685,5.69973 427.5,2.5 Z"/></g>
<g><path style="opacity:0.008" fill="#fefffe" d="M 459.5,3.5 C 460.833,4.16667 460.833,4.16667 459.5,3.5 Z"/></g>
<g><path style="opacity:0.949" fill="#7f7f7f" d="M 427.5,2.5 C 421.685,5.69973 415.351,7.36639 408.5,7.5C 408.62,6.41383 409.287,5.74716 410.5,5.5C 416.195,4.59154 421.862,3.59154 427.5,2.5 Z"/></g>
<g><path style="opacity:0.012" fill="#fefffe" d="M 467.5,7.5 C 468.833,8.16667 468.833,8.16667 467.5,7.5 Z"/></g>
<g><path style="opacity:0.004" fill="#fefffe" d="M 469.5,8.5 C 470.833,9.16667 470.833,9.16667 469.5,8.5 Z"/></g>
<g><path style="opacity:0.004" fill="#fefffe" d="M 471.5,9.5 C 472.833,10.1667 472.833,10.1667 471.5,9.5 Z"/></g>
<g><path style="opacity:1" fill="#777777" d="M 467.5,28.5 C 467.631,29.3764 467.298,30.0431 466.5,30.5C 457.256,22.9624 446.756,17.9624 435,15.5C 429.934,15.1906 424.767,15.6906 419.5,17C 414.94,18.7256 411.94,21.8923 410.5,26.5C 411.128,28.2581 412.128,29.7581 413.5,31C 424.47,35.3801 435.637,37.5468 447,37.5C 450.201,38.1853 453.035,39.5187 455.5,41.5C 447.5,41.5 439.5,41.5 431.5,41.5C 421.691,40.0327 411.858,39.0327 402,38.5C 396.268,27.1025 399.101,18.9358 410.5,14C 415.737,13.3071 420.737,11.9737 425.5,10C 430.833,9.33333 436.167,9.33333 441.5,10C 448.414,12.7905 455.081,16.1238 461.5,20C 463.888,22.6287 465.888,25.462 467.5,28.5 Z"/></g>
<g><path style="opacity:1" fill="#696969" d="M 467.5,28.5 C 471.233,33.5644 475.899,37.5644 481.5,40.5C 473.016,41.493 464.349,41.8264 455.5,41.5C 453.035,39.5187 450.201,38.1853 447,37.5C 435.637,37.5468 424.47,35.3801 413.5,31C 412.128,29.7581 411.128,28.2581 410.5,26.5C 411.94,21.8923 414.94,18.7256 419.5,17C 424.767,15.6906 429.934,15.1906 435,15.5C 446.756,17.9624 457.256,22.9624 466.5,30.5C 467.298,30.0431 467.631,29.3764 467.5,28.5 Z"/></g>
<g><path style="opacity:0.38" fill="#9a9a9a" d="M 407.5,7.5 C 402.173,10.6242 397.34,14.6242 393,19.5C 391.97,21.5883 391.137,23.755 390.5,26C 390.164,27.0299 389.497,27.5299 388.5,27.5C 389.512,24.5491 390.846,21.2158 392.5,17.5C 396.278,12.4368 401.278,9.1035 407.5,7.5 Z"/></g>
<g><path style="opacity:1" fill="#5a5a5a" d="M 424.5,18.5 C 443.084,19.1226 458.75,26.2893 471.5,40C 467.5,40.6667 463.5,40.6667 459.5,40C 457.404,38.2342 455.071,36.9009 452.5,36C 441.581,35.2915 430.915,33.2915 420.5,30C 416.539,29.3922 415.039,27.2256 416,23.5C 418.531,21.0967 421.364,19.4301 424.5,18.5 Z"/></g>
<g><path style="opacity:0.004" fill="#fefffe" d="M 485.5,21.5 C 486.833,22.1667 486.833,22.1667 485.5,21.5 Z"/></g>
<g><path style="opacity:1" fill="#959595" d="M 465.5,14.5 C 469.77,16.1792 473.104,19.0126 475.5,23C 482.062,27.0642 487.395,32.2308 491.5,38.5C 487.738,36.5873 484.071,34.4206 480.5,32C 475.837,25.8158 470.837,19.9824 465.5,14.5 Z"/></g>
<g><path style="opacity:0.149" fill="#f4f4f4" d="M 344.5,32.5 C 344.5,32.8333 344.5,33.1667 344.5,33.5C 342.167,33.5 339.833,33.5 337.5,33.5C 337.962,32.1201 338.962,31.4534 340.5,31.5C 341.849,31.8457 343.183,32.179 344.5,32.5 Z"/></g>
<g><path style="opacity:0.012" fill="#fefffe" d="M 359.5,32.5 C 360.833,33.1667 360.833,33.1667 359.5,32.5 Z"/></g>
<g><path style="opacity:0.875" fill="#9c9c9c" d="M 388.5,28.5 C 388.155,31.1979 386.822,33.1979 384.5,34.5C 384.684,31.6627 386.018,29.6627 388.5,28.5 Z"/></g>
<g><path style="opacity:0.004" fill="#fefffe" d="M 362.5,33.5 C 363.833,34.1667 363.833,34.1667 362.5,33.5 Z"/></g>
<g><path style="opacity:0.012" fill="#fefffe" d="M 365.5,34.5 C 366.833,35.1667 366.833,35.1667 365.5,34.5 Z"/></g>
<g><path style="opacity:0.024" fill="#fefffe" d="M 498.5,34.5 C 499.833,35.1667 499.833,35.1667 498.5,34.5 Z"/></g>
<g><path style="opacity:0.644" fill="#d8d8d8" d="M 359.5,33.5 C 360.209,34.404 361.209,34.7373 362.5,34.5C 363.209,35.404 364.209,35.7373 365.5,35.5C 365.842,36.3382 366.508,36.6716 367.5,36.5C 368.609,37.29 369.942,37.79 371.5,38C 372.833,38.6667 372.833,39.3333 371.5,40C 372.527,40.5133 373.527,41.0133 374.5,41.5C 375.531,42.2485 376.698,42.9152 378,43.5C 379.242,41.1407 380.742,39.1407 382.5,37.5C 381.59,40.9922 379.924,43.9922 377.5,46.5C 374.222,45.1911 371.222,43.3578 368.5,41C 366.122,40.4888 363.788,39.8221 361.5,39C 361.833,38.6667 362.167,38.3333 362.5,38C 360.866,37.5065 359.199,37.3398 357.5,37.5C 353.315,35.4641 348.982,34.1308 344.5,33.5C 345.833,33.1667 345.833,32.8333 344.5,32.5C 344.369,31.7611 344.536,31.0944 345,30.5C 349.926,31.2992 354.759,32.2992 359.5,33.5 Z"/></g>
<g><path style="opacity:0.016" fill="#fefffe" d="M 367.5,35.5 C 368.833,36.1667 368.833,36.1667 367.5,35.5 Z"/></g>
<g><path style="opacity:0.49" fill="#9e9e9e" d="M 329.5,34.5 C 327.548,36.6661 325.048,37.9994 322,38.5C 321.235,38.4301 320.735,38.0967 320.5,37.5C 323.421,36.304 326.421,35.304 329.5,34.5 Z"/></g>
<g><path style="opacity:0.412" fill="#b8b8b8" d="M 384.5,34.5 C 384.573,36.0269 383.906,37.0269 382.5,37.5C 382.427,35.9731 383.094,34.9731 384.5,34.5 Z"/></g>
<g><path style="opacity:1" fill="#595959" d="M 408.5,42.5 C 407.081,43.4511 405.415,43.7845 403.5,43.5C 403.898,46.4825 404.232,49.4825 404.5,52.5C 404.387,54.6413 403.72,56.4747 402.5,58C 403.615,63.4109 404.448,68.9109 405,74.5C 411.233,89.2981 417.733,103.965 424.5,118.5C 425.325,119.386 426.325,119.719 427.5,119.5C 426.22,120.931 424.553,121.598 422.5,121.5C 418.399,113.768 414.899,105.768 412,97.5C 408.017,93.5499 405.017,88.8832 403,83.5C 399.962,75.3433 397.296,67.01 395,58.5C 392.384,54.8569 389.051,53.1903 385,53.5C 384.536,52.9056 384.369,52.2389 384.5,51.5C 387.486,44.19 391.486,37.5233 396.5,31.5C 398.243,34.996 399.91,38.496 401.5,42C 403.81,42.4966 406.143,42.6633 408.5,42.5 Z"/></g>
<g><path style="opacity:1" fill="#c1c1c1" d="M 447.5,2.5 C 448.5,2.5 449.5,2.5 450.5,2.5C 451.058,3.78991 452.058,4.62325 453.5,5C 453.167,5.33333 452.833,5.66667 452.5,6C 456.662,6.52605 460.662,7.52605 464.5,9C 469.415,11.5749 474.081,14.5749 478.5,18C 482.589,24.0929 487.422,29.5929 493,34.5C 493.483,35.448 493.649,36.448 493.5,37.5C 497.81,37.295 500.477,39.295 501.5,43.5C 500.167,43.1667 498.833,42.8333 497.5,42.5C 495.223,41.5514 493.223,40.2181 491.5,38.5C 487.395,32.2308 482.062,27.0642 475.5,23C 473.104,19.0126 469.77,16.1792 465.5,14.5C 458.185,10.0082 450.518,6.34157 442.5,3.5C 444.415,3.78448 446.081,3.45115 447.5,2.5 Z"/></g>
<g><path style="opacity:0.024" fill="#fefffe" d="M 505.5,39.5 C 506.833,40.1667 506.833,40.1667 505.5,39.5 Z"/></g>
<g><path style="opacity:0.024" fill="#fefffe" d="M 374.5,40.5 C 375.833,41.1667 375.833,41.1667 374.5,40.5 Z"/></g>
<g><path style="opacity:0.004" fill="#fefffe" d="M 507.5,41.5 C 507.897,40.475 508.563,40.3083 509.5,41C 508.906,41.4643 508.239,41.631 507.5,41.5 Z"/></g>
<g><path style="opacity:1" fill="#7f7f7f" d="M 393.5,117.5 C 394.805,120.907 396.471,124.24 398.5,127.5C 400.167,128.667 401.833,129.833 403.5,131C 404.449,131.617 405.282,131.451 406,130.5C 407.952,125.945 407.452,121.612 404.5,117.5C 404.709,116.914 405.043,116.414 405.5,116C 402.97,114.805 400.97,112.972 399.5,110.5C 395.486,103.135 391.486,95.8016 387.5,88.5C 382.646,84.323 377.146,81.323 371,79.5C 368.507,79.4513 366.007,80.2846 363.5,82C 362.833,83.3333 362.167,84.6667 361.5,86C 363.35,89.3619 365.683,92.3619 368.5,95C 373.772,97.9411 378.772,101.274 383.5,105C 382.833,105.333 382.167,105.667 381.5,106C 383.058,106.21 384.391,106.71 385.5,107.5C 383.143,107.663 380.81,107.497 378.5,107C 368.078,96.1219 355.412,89.4552 340.5,87C 328.756,82.2565 320.756,73.9232 316.5,62C 319.12,60.1826 321.62,58.0159 324,55.5C 324.71,51.4365 325.877,47.6031 327.5,44C 334.857,40.2596 342.524,39.5929 350.5,42C 356.458,46.289 362.124,50.9557 367.5,56C 372.702,58.2253 377.702,60.7253 382.5,63.5C 382.539,72.7161 385.705,80.7161 392,87.5C 397.667,98.5 403.333,109.5 409,120.5C 412.049,125.216 416.049,128.882 421,131.5C 420.098,136.393 419.598,141.393 419.5,146.5C 401.416,145.354 392.749,135.688 393.5,117.5 Z"/></g>
<g><path style="opacity:1" fill="#b0b0b0" d="M 357.5,37.5 C 359.199,37.3398 360.866,37.5065 362.5,38C 362.167,38.3333 361.833,38.6667 361.5,39C 363.788,39.8221 366.122,40.4888 368.5,41C 371.222,43.3578 374.222,45.1911 377.5,46.5C 377.262,48.6449 376.262,50.3115 374.5,51.5C 368.789,46.7802 363.123,42.1136 357.5,37.5 Z"/></g>
<g><path style="opacity:1" fill="#373737" d="M 481.5,40.5 C 482.043,40.56 482.376,40.8933 482.5,41.5C 465.338,42.827 448.338,42.827 431.5,41.5C 439.5,41.5 447.5,41.5 455.5,41.5C 464.349,41.8264 473.016,41.493 481.5,40.5 Z"/></g>
<g><path style="opacity:1" fill="#737373" d="M 319.5,37.5 C 319.426,39.4109 318.426,40.5776 316.5,41C 308.705,43.2618 301.205,46.0952 294,49.5C 293.601,49.2716 293.435,48.9382 293.5,48.5C 301.916,44.4653 310.582,40.7987 319.5,37.5 Z"/></g>
<g><path style="opacity:1" fill="#6b6b6b" d="M 408.5,42.5 C 414.358,42.1778 420.025,42.5111 425.5,43.5C 421.162,43.6219 420.828,43.9553 424.5,44.5C 424.965,49.2048 424.299,53.7048 422.5,58C 423.063,60.1245 423.396,62.2912 423.5,64.5C 418.802,81.5288 419.635,98.1955 426,114.5C 426.74,116.319 427.907,117.652 429.5,118.5C 429.158,119.338 428.492,119.672 427.5,119.5C 426.325,119.719 425.325,119.386 424.5,118.5C 417.733,103.965 411.233,89.2981 405,74.5C 404.448,68.9109 403.615,63.4109 402.5,58C 403.72,56.4747 404.387,54.6413 404.5,52.5C 404.232,49.4825 403.898,46.4825 403.5,43.5C 405.415,43.7845 407.081,43.4511 408.5,42.5 Z"/></g>
<g><path style="opacity:1" fill="#757575" d="M 425.5,43.5 C 432.8,44.2266 440.133,44.7266 447.5,45C 452.559,47.6239 453.726,51.4572 451,56.5C 445.97,58.5134 441.636,61.5134 438,65.5C 435.125,73.5631 432.291,81.5631 429.5,89.5C 429.556,92.1113 430.556,94.278 432.5,96C 438.895,98.6859 445.562,100.353 452.5,101C 446.379,108.966 438.712,114.799 429.5,118.5C 427.907,117.652 426.74,116.319 426,114.5C 419.635,98.1955 418.802,81.5288 423.5,64.5C 423.396,62.2912 423.063,60.1245 422.5,58C 424.299,53.7048 424.965,49.2048 424.5,44.5C 420.828,43.9553 421.162,43.6219 425.5,43.5 Z"/></g>
<g><path style="opacity:1" fill="#505050" d="M 488.5,46.5 C 477.833,47.1667 467.167,47.8333 456.5,48.5C 455.957,48.44 455.624,48.1067 455.5,47.5C 466.48,46.5012 477.48,46.1679 488.5,46.5 Z"/></g>
<g><path style="opacity:1" fill="#797979" d="M 456.5,48.5 C 467.167,47.8333 477.833,47.1667 488.5,46.5C 486.909,45.7811 485.409,44.7811 484,43.5C 483.312,42.6683 483.479,42.0016 484.5,41.5C 491.477,46.3117 497.311,52.3117 502,59.5C 502.958,71.5965 502.625,83.5965 501,95.5C 498.117,86.8176 496.451,77.8176 496,68.5C 492.211,62.3768 487.378,57.2102 481.5,53C 474.865,52.0281 468.199,51.3614 461.5,51C 459.922,49.9055 458.255,49.0722 456.5,48.5 Z"/></g>
<g><path style="opacity:0.008" fill="#fefffe" d="M 516.5,48.5 C 517.833,49.1667 517.833,49.1667 516.5,48.5 Z"/></g>
<g><path style="opacity:1" fill="#838383" d="M 292.5,48.5 C 292.53,49.4972 292.03,50.1639 291,50.5C 289.627,51.5152 288.46,51.5152 287.5,50.5C 288.93,49.4625 290.597,48.7959 292.5,48.5 Z"/></g>
<g><path style="opacity:0.929" fill="#797979" d="M 286.5,50.5 C 286.179,52.0481 285.179,52.7148 283.5,52.5C 283.973,51.0937 284.973,50.427 286.5,50.5 Z"/></g>
<g><path style="opacity:0.012" fill="#fefffe" d="M 518.5,51.5 C 519.833,52.1667 519.833,52.1667 518.5,51.5 Z"/></g>
<g><path style="opacity:0.02" fill="#fefffe" d="M 519.5,53.5 C 520.833,54.1667 520.833,54.1667 519.5,53.5 Z"/></g>
<g><path style="opacity:1" fill="#646464" d="M 283.5,52.5 C 282.033,54.3627 280.033,55.696 277.5,56.5C 276.893,56.3764 276.56,56.0431 276.5,55.5C 278.509,53.9348 280.843,52.9348 283.5,52.5 Z"/></g>
<g><path style="opacity:1" fill="#737373" d="M 486.5,61.5 C 486.082,62.2216 485.416,62.7216 484.5,63C 484.833,63.3333 485.167,63.6667 485.5,64C 484.5,64.3333 483.5,64.6667 482.5,65C 483.833,65.6667 483.833,66.3333 482.5,67C 478.41,68.7664 474.577,70.933 471,73.5C 471.128,75.445 470.962,77.2784 470.5,79C 471.308,79.3076 471.975,79.8076 472.5,80.5C 469.957,83.7439 469.957,86.9106 472.5,90C 472.167,90.3333 471.833,90.6667 471.5,91C 472.737,91.2321 473.737,91.7321 474.5,92.5C 467.275,94.6829 459.942,96.6829 452.5,98.5C 446.639,98.1905 440.973,97.0239 435.5,95C 430.268,90.7164 430.434,86.5498 436,82.5C 435.997,75.5045 438.164,69.3379 442.5,64C 448.441,60.8768 453.774,57.0435 458.5,52.5C 465.697,54.1869 473.03,55.0202 480.5,55C 482.847,56.8725 484.847,59.0392 486.5,61.5 Z"/></g>
<g><path style="opacity:0.004" fill="#fefffe" d="M 522.5,57.5 C 523.833,58.1667 523.833,58.1667 522.5,57.5 Z"/></g>
<g><path style="opacity:0.58" fill="#878787" d="M 275.5,55.5 C 270.785,59.2134 266.785,63.5467 263.5,68.5C 265.422,62.2452 269.422,57.9119 275.5,55.5 Z"/></g>
<g><path style="opacity:1" fill="#777777" d="M 335.5,109.5 C 331.818,109.665 328.152,109.499 324.5,109C 324.833,108.667 325.167,108.333 325.5,108C 320.801,102.821 315.968,97.6546 311,92.5C 307.014,85.842 303.014,79.1753 299,72.5C 295.807,72.7705 292.807,71.7705 290,69.5C 288.893,70.7119 288.393,70.3786 288.5,68.5C 289.343,66.8267 290.676,65.66 292.5,65C 296.019,64.6047 299.352,63.6047 302.5,62C 308.624,56.1079 315.291,50.9412 322.5,46.5C 323.641,48.4213 323.808,50.4213 323,52.5C 320.104,56.0125 316.938,59.1792 313.5,62C 316.581,71.7456 322.581,79.0789 331.5,84C 336.938,90.5079 339.105,98.0079 338,106.5C 337.623,107.942 336.79,108.942 335.5,109.5 Z"/></g>
<g><path style="opacity:1" fill="#5c5c5c" d="M 486.5,61.5 C 489.55,63.5491 491.883,66.2157 493.5,69.5C 493.775,74.2203 492.941,74.5537 491,70.5C 488.602,73.0492 485.935,75.3826 483,77.5C 480.58,81.9503 480.413,86.2836 482.5,90.5C 483.552,90.3505 484.552,90.5172 485.5,91C 482.305,91.1805 479.305,91.6805 476.5,92.5C 475.833,92.5 475.167,92.5 474.5,92.5C 473.737,91.7321 472.737,91.2321 471.5,91C 471.833,90.6667 472.167,90.3333 472.5,90C 469.957,86.9106 469.957,83.7439 472.5,80.5C 471.975,79.8076 471.308,79.3076 470.5,79C 470.962,77.2784 471.128,75.445 471,73.5C 474.577,70.933 478.41,68.7664 482.5,67C 483.833,66.3333 483.833,65.6667 482.5,65C 483.5,64.6667 484.5,64.3333 485.5,64C 485.167,63.6667 484.833,63.3333 484.5,63C 485.416,62.7216 486.082,62.2216 486.5,61.5 Z"/></g>
<g><path style="opacity:1" fill="#717171" d="M 287.5,163.5 C 286.448,163.649 285.448,163.483 284.5,163C 284.833,162.667 285.167,162.333 285.5,162C 280.83,135.619 277.163,109.286 274.5,83C 273.269,78.9095 272.269,74.7428 271.5,70.5C 272.203,68.2843 273.536,66.451 275.5,65C 287.03,58.7993 299.03,54.1326 311.5,51C 304.241,57.0339 296.241,61.8672 287.5,65.5C 281.493,72.1567 278.327,79.8234 278,88.5C 280.379,92.5928 282.212,96.9261 283.5,101.5C 282.739,107.27 281.906,112.937 281,118.5C 285.652,125.14 288.652,132.474 290,140.5C 292.654,144.98 295.154,149.48 297.5,154C 295.661,158.671 292.327,161.838 287.5,163.5 Z"/></g>
<g><path style="opacity:1" fill="#4d4d4d" d="M 493.5,69.5 C 492.902,80.8209 495.069,91.8209 500,102.5C 500.798,104.259 500.631,105.926 499.5,107.5C 497.082,106.543 494.916,105.209 493,103.5C 492.148,100.012 490.981,96.6783 489.5,93.5C 485.217,92.5078 480.884,92.1744 476.5,92.5C 479.305,91.6805 482.305,91.1805 485.5,91C 484.552,90.5172 483.552,90.3505 482.5,90.5C 480.413,86.2836 480.58,81.9503 483,77.5C 485.935,75.3826 488.602,73.0492 491,70.5C 492.941,74.5537 493.775,74.2203 493.5,69.5 Z"/></g>
<g><path style="opacity:0.671" fill="#8a8a8a" d="M 263.5,68.5 C 261.057,73.8691 259.557,79.5357 259,85.5C 258.617,86.056 258.117,86.3893 257.5,86.5C 257.697,80.6179 258.863,74.9513 261,69.5C 261.671,68.7476 262.504,68.4142 263.5,68.5 Z"/></g>
<g><path style="opacity:1" fill="#666666" d="M 288.5,68.5 C 288.393,70.3786 288.893,70.7119 290,69.5C 292.807,71.7705 295.807,72.7705 299,72.5C 303.014,79.1753 307.014,85.842 311,92.5C 315.968,97.6546 320.801,102.821 325.5,108C 325.167,108.333 324.833,108.667 324.5,109C 328.152,109.499 331.818,109.665 335.5,109.5C 328.542,110.105 321.542,111.105 314.5,112.5C 312.5,112.5 310.5,112.5 308.5,112.5C 308.291,107.324 306.125,103.324 302,100.5C 295.977,92.32 289.81,84.32 283.5,76.5C 284.383,73.2957 286.05,70.6291 288.5,68.5 Z"/></g>
<g><path style="opacity:1" fill="#636363" d="M 271.5,70.5 C 272.269,74.7428 273.269,78.9095 274.5,83C 277.163,109.286 280.83,135.619 285.5,162C 285.167,162.333 284.833,162.667 284.5,163C 285.448,163.483 286.448,163.649 287.5,163.5C 285.345,165.534 283.012,165.867 280.5,164.5C 279.737,163.732 278.737,163.232 277.5,163C 278.308,162.692 278.975,162.192 279.5,161.5C 275.736,139.654 272.57,117.654 270,95.5C 269.333,92.1667 268.667,88.8333 268,85.5C 267.667,86.5 267.333,87.5 267,88.5C 266.956,85.5248 267.123,82.5248 267.5,79.5C 268.463,76.2558 269.796,73.2558 271.5,70.5 Z"/></g>
<g><path style="opacity:1" fill="#535353" d="M 283.5,76.5 C 289.81,84.32 295.977,92.32 302,100.5C 306.125,103.324 308.291,107.324 308.5,112.5C 310.5,112.5 312.5,112.5 314.5,112.5C 312.034,113.634 309.367,113.801 306.5,113C 302.531,111.016 298.531,109.016 294.5,107C 291.854,106.503 289.187,106.336 286.5,106.5C 286.663,104.143 286.497,101.81 286,99.5C 283.587,94.5934 281.42,89.5934 279.5,84.5C 280.334,81.4982 281.667,78.8315 283.5,76.5 Z"/></g>
<g><path style="opacity:1" fill="#404040" d="M 384.5,51.5 C 384.369,52.2389 384.536,52.9056 385,53.5C 389.051,53.1903 392.384,54.8569 395,58.5C 397.296,67.01 399.962,75.3433 403,83.5C 405.017,88.8832 408.017,93.5499 412,97.5C 414.899,105.768 418.399,113.768 422.5,121.5C 417.628,118.583 414.961,114.25 414.5,108.5C 412.408,108.439 410.908,107.439 410,105.5C 407.616,97.7947 403.949,90.7947 399,84.5C 394.661,77.8161 392.161,70.4827 391.5,62.5C 389.929,60.585 387.929,59.585 385.5,59.5C 383.689,59.428 382.356,58.5947 381.5,57C 382.14,54.8796 383.14,53.0463 384.5,51.5 Z"/></g>
<g><path style="opacity:1" fill="#1f1f1f" d="M 385.5,59.5 C 387.929,59.585 389.929,60.585 391.5,62.5C 392.161,70.4827 394.661,77.8161 399,84.5C 403.949,90.7947 407.616,97.7947 410,105.5C 410.908,107.439 412.408,108.439 414.5,108.5C 414.961,114.25 417.628,118.583 422.5,121.5C 420.636,122.793 418.636,122.793 416.5,121.5C 408.063,107.623 399.897,93.6226 392,79.5C 391.642,72.1706 389.476,65.5039 385.5,59.5 Z"/></g>
<g><path style="opacity:1" fill="#a1a1a1" d="M 497.5,42.5 C 498.833,42.8333 500.167,43.1667 501.5,43.5C 503.454,46.2836 505.954,48.6169 509,50.5C 513.347,55.1935 516.681,60.5268 519,66.5C 519.863,87.5511 519.197,108.551 517,129.5C 515.701,132.147 514.368,134.814 513,137.5C 509.894,141.44 506.061,144.44 501.5,146.5C 508.015,141.137 512.848,134.47 516,126.5C 517.374,107.513 518.041,88.5135 518,69.5C 517.61,66.8958 516.776,64.5625 515.5,62.5C 513.438,60.5899 511.938,58.2565 511,55.5C 509.549,53.5359 507.716,52.2026 505.5,51.5C 502.833,48.5 500.167,45.5 497.5,42.5 Z"/></g>
<g><path style="opacity:0.91" fill="#b4b4b4" d="M 257.5,86.5 C 257.715,88.1788 257.048,89.1788 255.5,89.5C 255.427,87.9731 256.094,86.9731 257.5,86.5 Z"/></g>
<g><path style="opacity:1" fill="#7c7c7c" d="M 384.5,110.5 C 362.923,117.145 340.756,124.145 318,131.5C 317.667,131.167 317.333,130.833 317,130.5C 308.821,134.075 300.654,136.408 292.5,137.5C 291.815,135.586 291.315,133.586 291,131.5C 289.185,127.204 286.852,123.204 284,119.5C 283.439,110.552 287.605,107.386 296.5,110C 300.539,113.294 305.206,115.127 310.5,115.5C 316.553,115.042 322.386,113.708 328,111.5C 335.469,114.029 339.969,111.529 341.5,104C 340.555,99.0531 339.222,94.2198 337.5,89.5C 352.625,90.7245 365.625,96.8912 376.5,108C 379.251,108.943 381.917,109.776 384.5,110.5 Z"/></g>
<g><path style="opacity:1" fill="#9a9a9a" d="M 393.5,117.5 C 391.301,113.753 388.634,110.42 385.5,107.5C 384.391,106.71 383.058,106.21 381.5,106C 382.167,105.667 382.833,105.333 383.5,105C 378.772,101.274 373.772,97.9411 368.5,95C 365.683,92.3619 363.35,89.3619 361.5,86C 362.167,84.6667 362.833,83.3333 363.5,82C 366.007,80.2846 368.507,79.4513 371,79.5C 377.146,81.323 382.646,84.323 387.5,88.5C 391.486,95.8016 395.486,103.135 399.5,110.5C 400.97,112.972 402.97,114.805 405.5,116C 405.043,116.414 404.709,116.914 404.5,117.5C 407.452,121.612 407.952,125.945 406,130.5C 405.282,131.451 404.449,131.617 403.5,131C 401.833,129.833 400.167,128.667 398.5,127.5C 396.471,124.24 394.805,120.907 393.5,117.5 Z"/></g>
<g><path style="opacity:1" fill="#656565" d="M 505.5,51.5 C 507.716,52.2026 509.549,53.5359 511,55.5C 511.938,58.2565 513.438,60.5899 515.5,62.5C 516.882,68.2254 517.549,74.0587 517.5,80C 516.667,93.8332 515.833,107.667 515,121.5C 512.934,127.757 510.267,133.757 507,139.5C 503.456,142.74 499.289,144.74 494.5,145.5C 498.078,143.109 501.578,140.442 505,137.5C 506.705,135.423 507.872,133.09 508.5,130.5C 508.5,130.167 508.5,129.833 508.5,129.5C 510.067,128.319 510.901,126.653 511,124.5C 513.332,105.567 513.998,86.5674 513,67.5C 512.768,66.2625 512.268,65.2625 511.5,64.5C 511.204,62.597 510.537,60.9303 509.5,59.5C 508.692,56.5498 507.358,53.8831 505.5,51.5 Z"/></g>
<g><path style="opacity:0.976" fill="#2ea3f2" d="M 669.5,165.5 C 715.731,217.622 733.564,278.956 723,349.5C 721.951,350.517 720.784,350.684 719.5,350C 702.164,338.996 684.497,328.496 666.5,318.5C 672.607,286.88 666.274,257.546 647.5,230.5C 638.15,217.318 626.65,206.318 613,197.5C 611.931,204.046 610.764,210.546 609.5,217C 609.768,221.595 609.768,226.428 609.5,231.5C 608.034,233.657 606.2,233.99 604,232.5C 587.52,200.162 571.52,168.162 556,136.5C 555.333,135.167 555.333,133.833 556,132.5C 579.298,119.35 602.298,105.684 625,91.5C 625.833,92.3333 626.667,93.1667 627.5,94C 625.031,105.82 623.031,117.487 621.5,129C 640.028,138.069 656.028,150.236 669.5,165.5 Z"/></g>
<g><path style="opacity:1" fill="#555555" d="M 267.5,79.5 C 267.123,82.5248 266.956,85.5248 267,88.5C 267.333,87.5 267.667,86.5 268,85.5C 268.667,88.8333 269.333,92.1667 270,95.5C 272.57,117.654 275.736,139.654 279.5,161.5C 278.975,162.192 278.308,162.692 277.5,163C 278.737,163.232 279.737,163.732 280.5,164.5C 277.284,164.655 274.617,163.655 272.5,161.5C 272.656,157.302 272.656,153.136 272.5,149C 269.756,132.391 267.089,115.724 264.5,99C 265.286,95.5418 265.62,92.0418 265.5,88.5C 265.42,85.2186 266.087,82.2186 267.5,79.5 Z"/></g>
<g><path style="opacity:1" fill="#444444" d="M 473.5,95.5 C 478.036,94.198 482.703,94.198 487.5,95.5C 488.822,102.996 492.989,108.329 500,111.5C 500.667,114.5 500.667,117.5 500,120.5C 498.08,123.339 496.413,126.339 495,129.5C 492.386,131.556 489.553,133.223 486.5,134.5C 483.773,121.702 481.773,108.702 480.5,95.5C 478.167,95.5 475.833,95.5 473.5,95.5 Z"/></g>
<g><path style="opacity:1" fill="#515151" d="M 473.5,95.5 C 475.833,95.5 478.167,95.5 480.5,95.5C 481.773,108.702 483.773,121.702 486.5,134.5C 480.871,135.377 475.538,137.044 470.5,139.5C 470.918,138.778 471.584,138.278 472.5,138C 471.033,136.902 470.199,135.402 470,133.5C 469.182,122.116 467.349,110.95 464.5,100C 465.167,99.6667 465.833,99.3333 466.5,99C 465.207,98.51 463.873,98.3433 462.5,98.5C 465.799,96.5165 469.466,95.5165 473.5,95.5 Z"/></g>
<g><path style="opacity:0.302" fill="#b4b4b4" d="M 256.5,93.5 C 256.708,97.0848 255.375,99.7515 252.5,101.5C 253.249,98.362 254.583,95.6954 256.5,93.5 Z"/></g>
<g><path style="opacity:1" fill="#5c5c5c" d="M 462.5,98.5 C 463.873,98.3433 465.207,98.51 466.5,99C 465.833,99.3333 465.167,99.6667 464.5,100C 467.349,110.95 469.182,122.116 470,133.5C 470.199,135.402 471.033,136.902 472.5,138C 471.584,138.278 470.918,138.778 470.5,139.5C 468.028,140.909 465.695,142.576 463.5,144.5C 460.646,142.491 457.646,140.657 454.5,139C 447.174,138.5 439.841,138.334 432.5,138.5C 432.172,133.511 430.005,129.511 426,126.5C 425.517,125.552 425.351,124.552 425.5,123.5C 426.391,122.89 427.391,122.557 428.5,122.5C 428.389,123.117 428.056,123.617 427.5,124C 430.5,128.333 433.5,132.667 436.5,137C 442.801,136.005 449.134,135.339 455.5,135C 455.833,134.667 456.167,134.333 456.5,134C 454.23,125.391 452.563,116.558 451.5,107.5C 452.5,106.667 453.5,105.833 454.5,105C 453.906,104.536 453.239,104.369 452.5,104.5C 455.161,101.498 458.495,99.4977 462.5,98.5 Z"/></g>
<g><path style="opacity:0.651" fill="#9f9f9f" d="M 252.5,101.5 C 252.771,103.38 252.104,104.713 250.5,105.5C 250.66,103.847 251.326,102.514 252.5,101.5 Z"/></g>
<g><path style="opacity:1" fill="#454545" d="M 265.5,88.5 C 265.62,92.0418 265.286,95.5418 264.5,99C 267.089,115.724 269.756,132.391 272.5,149C 272.656,153.136 272.656,157.302 272.5,161.5C 267.488,158.151 263.154,154.151 259.5,149.5C 259.982,148.584 260.315,147.584 260.5,146.5C 259.311,138.792 257.978,131.126 256.5,123.5C 256.709,122.914 257.043,122.414 257.5,122C 256.973,119.24 255.973,116.74 254.5,114.5C 257.077,109.406 259.911,104.406 263,99.5C 263.795,95.6879 264.629,92.0212 265.5,88.5 Z"/></g>
<g><path style="opacity:1" fill="#6a6a6a" d="M 452.5,104.5 C 453.239,104.369 453.906,104.536 454.5,105C 453.5,105.833 452.5,106.667 451.5,107.5C 452.563,116.558 454.23,125.391 456.5,134C 456.167,134.333 455.833,134.667 455.5,135C 449.134,135.339 442.801,136.005 436.5,137C 433.5,132.667 430.5,128.333 427.5,124C 428.056,123.617 428.389,123.117 428.5,122.5C 432.103,120.36 435.77,118.193 439.5,116C 443.428,111.564 447.761,107.731 452.5,104.5 Z"/></g>
<g><path style="opacity:0.18" fill="#8d8d8d" d="M 250.5,105.5 C 248.631,108.578 247.298,111.911 246.5,115.5C 246.167,115.5 245.833,115.5 245.5,115.5C 245.614,111.27 247.281,107.937 250.5,105.5 Z"/></g>
<g><path style="opacity:1" fill="#323232" d="M 254.5,114.5 C 255.973,116.74 256.973,119.24 257.5,122C 257.043,122.414 256.709,122.914 256.5,123.5C 257.978,131.126 259.311,138.792 260.5,146.5C 260.315,147.584 259.982,148.584 259.5,149.5C 256.339,146.525 254.172,142.858 253,138.5C 252.333,131.167 252.333,123.833 253,116.5C 253.278,115.584 253.778,114.918 254.5,114.5 Z"/></g>
<g><path style="opacity:0.977" fill="#2ea3f2" d="M 109.5,345.5 C 106.343,350.118 103.843,355.118 102,360.5C 101.667,360.167 101.333,359.833 101,359.5C 98.3943,364.435 95.3943,369.102 92,373.5C 69.8618,361.925 48.1951,351.258 27,341.5C 25.0843,339.791 22.9176,338.457 20.5,337.5C 19.5713,336.311 19.238,334.978 19.5,333.5C 31.0001,329.045 41.6668,324.378 51.5,319.5C 52.6258,311.039 52.6258,303.206 51.5,296C 52.8688,284.964 54.8688,273.798 57.5,262.5C 57.3201,261.446 56.9867,260.446 56.5,259.5C 57.7185,259.891 58.5518,259.224 59,257.5C 59.5285,254.053 60.3618,250.719 61.5,247.5C 77.9624,200 107.962,161.5 151.5,132C 162.885,126.04 174.052,120.54 185,115.5C 185.833,116.333 186.667,117.167 187.5,118C 187.167,122.333 186.833,126.667 186.5,131C 187.167,133.667 187.833,136.333 188.5,139C 187.738,143.776 187.405,148.443 187.5,153C 189.255,161.739 189.921,170.239 189.5,178.5C 150.864,196.309 126.698,225.976 117,267.5C 116.01,275.03 115.177,282.53 114.5,290C 117.351,289.828 119.851,288.661 122,286.5C 122.333,286.833 122.667,287.167 123,287.5C 127.868,284.422 132.535,281.756 137,279.5C 137.333,279.833 137.667,280.167 138,280.5C 141,278.5 144,276.5 147,274.5C 150.36,277.746 150.027,280.746 146,283.5C 145.187,285.436 144.687,287.436 144.5,289.5C 143.5,289.5 142.5,289.5 141.5,289.5C 140.578,292.126 139.578,294.793 138.5,297.5C 128.99,313.113 119.323,329.113 109.5,345.5 Z"/></g>
<g><path style="opacity:1" fill="#484848" d="M 511.5,64.5 C 512.268,65.2625 512.768,66.2625 513,67.5C 513.998,86.5674 513.332,105.567 511,124.5C 510.901,126.653 510.067,128.319 508.5,129.5C 511.792,107.961 512.792,86.2943 511.5,64.5 Z"/></g>
<g><path style="opacity:1" fill="#6a6a6a" d="M 384.5,110.5 C 390.098,114.274 392.098,119.607 390.5,126.5C 389.778,126.082 389.278,125.416 389,124.5C 359.795,134.471 330.962,143.471 302.5,151.5C 302.657,152.873 302.49,154.207 302,155.5C 301.878,153.563 301.045,152.23 299.5,151.5C 297.137,146.817 294.804,142.15 292.5,137.5C 300.654,136.408 308.821,134.075 317,130.5C 317.333,130.833 317.667,131.167 318,131.5C 340.756,124.145 362.923,117.145 384.5,110.5 Z"/></g>
<g><path style="opacity:0.857" fill="#3c3c3c" d="M 245.5,115.5 C 245.833,115.5 246.167,115.5 246.5,115.5C 245.76,123.812 245.427,132.146 245.5,140.5C 244.511,135.025 244.178,129.358 244.5,123.5C 244.401,120.763 244.735,118.096 245.5,115.5 Z"/></g>
<g><path style="opacity:1" fill="#5c5c5c" d="M 390.5,126.5 C 392.081,128.142 392.747,130.142 392.5,132.5C 392.649,133.552 392.483,134.552 392,135.5C 391.667,135.167 391.333,134.833 391,134.5C 361.229,144.223 332.229,153.223 304,161.5C 302.989,162.056 302.156,162.722 301.5,163.5C 298.941,163.802 296.607,163.468 294.5,162.5C 296.437,161.069 298.27,159.402 300,157.5C 300.678,155.402 300.511,153.402 299.5,151.5C 301.045,152.23 301.878,153.563 302,155.5C 302.49,154.207 302.657,152.873 302.5,151.5C 330.962,143.471 359.795,134.471 389,124.5C 389.278,125.416 389.778,126.082 390.5,126.5 Z"/></g>
<g><path style="opacity:0.373" fill="#d0d0d0" d="M 244.5,123.5 C 244.178,129.358 244.511,135.025 245.5,140.5C 245.5,141.5 245.5,142.5 245.5,143.5C 244.778,143.082 244.278,142.416 244,141.5C 243.181,135.319 243.347,129.319 244.5,123.5 Z"/></g>
<g><path style="opacity:1" fill="#505050" d="M 392.5,132.5 C 394.793,136.758 397.793,140.424 401.5,143.5C 400.328,144.705 398.995,144.705 397.5,143.5C 391.617,145.76 385.783,148.093 380,150.5C 379.586,150.043 379.086,149.709 378.5,149.5C 364.32,154.724 350.154,159.057 336,162.5C 334.667,163.167 333.667,164.167 333,165.5C 322.402,164.844 311.902,164.177 301.5,163.5C 302.156,162.722 302.989,162.056 304,161.5C 332.229,153.223 361.229,144.223 391,134.5C 391.333,134.833 391.667,135.167 392,135.5C 392.483,134.552 392.649,133.552 392.5,132.5 Z"/></g>
<g><path style="opacity:1" fill="#414141" d="M 425.5,123.5 C 425.351,124.552 425.517,125.552 426,126.5C 430.005,129.511 432.172,133.511 432.5,138.5C 439.841,138.334 447.174,138.5 454.5,139C 457.646,140.657 460.646,142.491 463.5,144.5C 463.5,145.167 463.167,145.5 462.5,145.5C 460.456,144.969 458.789,143.802 457.5,142C 448.506,141.5 439.506,141.334 430.5,141.5C 430.579,138.729 430.079,136.063 429,133.5C 428.583,132.244 427.75,131.577 426.5,131.5C 424.763,129.45 422.763,127.617 420.5,126C 421.91,124.628 423.577,123.795 425.5,123.5 Z"/></g>
<g><path style="opacity:0.004" fill="#fefffe" d="M 517.5,139.5 C 518.833,140.167 518.833,140.167 517.5,139.5 Z"/></g>
<g><path style="opacity:1" fill="#2a2a2a" d="M 426.5,131.5 C 427.75,131.577 428.583,132.244 429,133.5C 430.079,136.063 430.579,138.729 430.5,141.5C 439.506,141.334 448.506,141.5 457.5,142C 458.789,143.802 460.456,144.969 462.5,145.5C 461.112,146.872 459.445,147.872 457.5,148.5C 454.059,147.631 450.726,146.464 447.5,145C 441.493,144.868 435.493,144.868 429.5,145C 428.584,144.626 427.75,144.126 427,143.5C 426.627,141.302 426.127,139.135 425.5,137C 426.233,135.234 426.567,133.401 426.5,131.5 Z"/></g>
<g><path style="opacity:0.004" fill="#fefffe" d="M 515.5,143.5 C 516.833,144.167 516.833,144.167 515.5,143.5 Z"/></g>
<g><path style="opacity:1" fill="#2f2f2f" d="M 509.5,59.5 C 510.537,60.9303 511.204,62.597 511.5,64.5C 512.792,86.2943 511.792,107.961 508.5,129.5C 508.5,129.833 508.5,130.167 508.5,130.5C 505.927,134.606 502.594,138.106 498.5,141C 489.554,143.307 481.22,146.974 473.5,152C 469.793,152.737 466.127,153.571 462.5,154.5C 467.678,150.833 473.012,147.333 478.5,144C 492.567,142.732 502.067,135.566 507,122.5C 509.314,101.522 510.147,80.5225 509.5,59.5 Z"/></g>
<g><path style="opacity:0.008" fill="#fefffe" d="M 513.5,144.5 C 514.833,145.167 514.833,145.167 513.5,144.5 Z"/></g>
<g><path style="opacity:1" fill="#404040" d="M 401.5,143.5 C 404.447,144.973 407.447,146.473 410.5,148C 423.447,148.174 424.78,152.174 414.5,160C 404.87,161.12 395.204,161.786 385.5,162C 381.613,165.111 377.28,167.444 372.5,169C 364.47,169.019 356.47,169.186 348.5,169.5C 331.331,166.345 313.998,164.679 296.5,164.5C 295.167,164.167 293.833,163.833 292.5,163.5C 292.957,162.702 293.624,162.369 294.5,162.5C 296.607,163.468 298.941,163.802 301.5,163.5C 311.902,164.177 322.402,164.844 333,165.5C 333.667,164.167 334.667,163.167 336,162.5C 350.154,159.057 364.32,154.724 378.5,149.5C 379.086,149.709 379.586,150.043 380,150.5C 385.783,148.093 391.617,145.76 397.5,143.5C 398.995,144.705 400.328,144.705 401.5,143.5 Z"/></g>
<g><path style="opacity:1" fill="#4f4f4f" d="M 508.5,130.5 C 507.872,133.09 506.705,135.423 505,137.5C 501.578,140.442 498.078,143.109 494.5,145.5C 489.324,147.578 483.99,149.411 478.5,151C 476.937,152.736 475.27,154.236 473.5,155.5C 466.704,156.774 460.037,156.774 453.5,155.5C 456.57,155.632 459.57,155.299 462.5,154.5C 466.127,153.571 469.793,152.737 473.5,152C 481.22,146.974 489.554,143.307 498.5,141C 502.594,138.106 505.927,134.606 508.5,130.5 Z"/></g>
<g><path style="opacity:1" fill="#c5c5c5" d="M 501.5,43.5 C 503.927,43.523 506.26,44.023 508.5,45C 516.146,51.3087 520.646,59.4754 522,69.5C 522.221,86.8581 521.554,104.191 520,121.5C 519.139,127.751 517.472,133.751 515,139.5C 507.142,148.357 497.309,153.857 485.5,156C 484.833,157 484.167,158 483.5,159C 478.397,160.717 473.397,162.717 468.5,165C 460.209,164.368 451.876,164.035 443.5,164C 438.382,166.715 434.382,170.548 431.5,175.5C 431.5,175.833 431.5,176.167 431.5,176.5C 430.833,176.5 430.5,176.833 430.5,177.5C 429.209,177.263 428.209,177.596 427.5,178.5C 417.252,179.963 406.919,180.797 396.5,181C 390.668,183.586 384.668,185.586 378.5,187C 363.283,188.391 348.283,187.391 333.5,184C 325.656,183.829 317.989,183.329 310.5,182.5C 322.937,182.032 335.27,182.865 347.5,185C 359.5,185.667 371.5,185.667 383.5,185C 396.485,177.848 410.485,174.182 425.5,174C 426.416,173.722 427.082,173.222 427.5,172.5C 432.289,168.922 436.956,165.089 441.5,161C 450.641,161.221 459.641,161.887 468.5,163C 471.757,162.545 474.091,160.879 475.5,158C 478.833,156 482.167,154 485.5,152C 490.594,150.985 495.594,149.652 500.5,148C 501.056,147.617 501.389,147.117 501.5,146.5C 506.061,144.44 509.894,141.44 513,137.5C 514.368,134.814 515.701,132.147 517,129.5C 519.197,108.551 519.863,87.5511 519,66.5C 516.681,60.5268 513.347,55.1935 509,50.5C 505.954,48.6169 503.454,46.2836 501.5,43.5 Z"/></g>
<g><path style="opacity:0.012" fill="#fefffe" d="M 512.5,145.5 C 512.833,145.5 513.167,145.5 513.5,145.5C 513.315,146.17 512.981,146.17 512.5,145.5 Z"/></g>
<g><path style="opacity:0.004" fill="#fefffe" d="M 510.5,148.5 C 511.833,149.167 511.833,149.167 510.5,148.5 Z"/></g>
<g><path style="opacity:0.008" fill="#fefffe" d="M 506.5,150.5 C 506.833,150.5 507.167,150.5 507.5,150.5C 507.315,151.17 506.981,151.17 506.5,150.5 Z"/></g>
<g><path style="opacity:0.44" fill="#e4e4e4" d="M 450.5,2.5 C 451.5,2.5 452.5,2.5 453.5,2.5C 454.209,3.40397 455.209,3.73731 456.5,3.5C 457.209,4.40397 458.209,4.73731 459.5,4.5C 460.542,5.79109 461.708,5.79109 463,4.5C 465.152,5.93006 466.652,7.26339 467.5,8.5C 467.842,9.33825 468.508,9.67158 469.5,9.5C 469.842,10.3382 470.508,10.6716 471.5,10.5C 472.625,11.0141 473.791,11.3474 475,11.5C 475.617,12.4491 475.451,13.2825 474.5,14C 475.833,14 477.167,14 478.5,14C 478.167,14.3333 477.833,14.6667 477.5,15C 478.667,16.1667 479.833,17.3333 481,18.5C 481.333,18.1667 481.667,17.8333 482,17.5C 483.755,19.1459 484.922,20.8126 485.5,22.5C 485.393,24.3786 485.893,24.7119 487,23.5C 488.617,24.5358 488.784,25.7025 487.5,27C 489.09,28.0458 490.59,29.2125 492,30.5C 493.131,29.3961 493.965,29.7295 494.5,31.5C 493.496,33.6773 494.162,34.0107 496.5,32.5C 496.016,33.7808 496.683,34.7808 498.5,35.5C 501.11,35.6532 503.443,36.9865 505.5,39.5C 504.167,39.8333 504.167,40.1667 505.5,40.5C 505.842,41.3382 506.508,41.6716 507.5,41.5C 508.846,43.127 510.346,43.7937 512,43.5C 512.617,44.4491 512.451,45.2825 511.5,46C 512.333,46.8333 513.167,47.6667 514,48.5C 514.977,47.2264 515.811,47.2264 516.5,48.5C 515.167,48.8333 515.167,49.1667 516.5,49.5C 516.932,50.7095 517.599,51.7095 518.5,52.5C 518.328,53.4916 518.662,54.1583 519.5,54.5C 520.189,55.7736 521.023,55.7736 522,54.5C 521.669,56.0187 521.836,57.352 522.5,58.5C 522.351,59.552 522.517,60.552 523,61.5C 523.654,60.3044 524.154,60.3044 524.5,61.5C 523.572,62.7678 523.405,64.1011 524,65.5C 524.654,64.3044 525.154,64.3044 525.5,65.5C 524.48,67.4325 524.313,69.4325 525,71.5C 525.333,71.1667 525.667,70.8333 526,70.5C 526.167,73.1667 526.333,75.8333 526.5,78.5C 525.021,83.8071 524.355,89.9738 524.5,97C 524.516,101.082 524.849,105.082 525.5,109C 524.257,110.87 523.59,113.036 523.5,115.5C 523.532,117.759 523.866,119.925 524.5,122C 522.275,124.025 521.941,126.358 523.5,129C 521.408,129.953 521.075,131.286 522.5,133C 520.915,135.395 519.248,137.561 517.5,139.5C 516.167,139.833 516.167,140.167 517.5,140.5C 516.833,141.5 516.167,142.5 515.5,143.5C 514.508,143.328 513.842,143.662 513.5,144.5C 512.833,144.5 512.5,144.833 512.5,145.5C 511.167,145.833 511.167,146.167 512.5,146.5C 511.833,147.167 511.167,147.833 510.5,148.5C 509.222,148.782 508.222,149.449 507.5,150.5C 507.167,149.167 506.833,149.167 506.5,150.5C 505.508,150.328 504.842,150.662 504.5,151.5C 503.539,153.287 502.039,154.62 500,155.5C 498.286,154.075 496.953,154.408 496,156.5C 495.023,155.226 494.189,155.226 493.5,156.5C 490.933,156.721 488.599,157.388 486.5,158.5C 485.167,158.833 485.167,159.167 486.5,159.5C 484.5,160.5 482.5,161.5 480.5,162.5C 479.833,162.5 479.5,162.833 479.5,163.5C 478.761,163.369 478.094,163.536 477.5,164C 478.696,164.654 478.696,165.154 477.5,165.5C 476.549,164.674 475.549,164.508 474.5,165C 475.673,168.11 475.173,168.277 473,165.5C 472.536,166.094 472.369,166.761 472.5,167.5C 470.901,167.232 469.568,167.566 468.5,168.5C 465.5,168.5 462.5,168.5 459.5,168.5C 458.081,167.549 456.415,167.216 454.5,167.5C 450.695,165.992 447.028,166.325 443.5,168.5C 443.167,167.167 442.833,167.167 442.5,168.5C 440.621,168.393 440.288,168.893 441.5,170C 439.638,171.366 437.972,172.866 436.5,174.5C 436.167,173.167 435.833,173.167 435.5,174.5C 434.833,174.5 434.5,174.833 434.5,175.5C 433.5,175.5 432.5,175.5 431.5,175.5C 434.382,170.548 438.382,166.715 443.5,164C 451.876,164.035 460.209,164.368 468.5,165C 473.397,162.717 478.397,160.717 483.5,159C 484.167,158 484.833,157 485.5,156C 497.309,153.857 507.142,148.357 515,139.5C 517.472,133.751 519.139,127.751 520,121.5C 521.554,104.191 522.221,86.8581 522,69.5C 520.646,59.4754 516.146,51.3087 508.5,45C 506.26,44.023 503.927,43.523 501.5,43.5C 500.477,39.295 497.81,37.295 493.5,37.5C 493.649,36.448 493.483,35.448 493,34.5C 487.422,29.5929 482.589,24.0929 478.5,18C 474.081,14.5749 469.415,11.5749 464.5,9C 460.662,7.52605 456.662,6.52605 452.5,6C 452.833,5.66667 453.167,5.33333 453.5,5C 452.058,4.62325 451.058,3.78991 450.5,2.5 Z"/></g>
<g><path style="opacity:0.02" fill="#fefffe" d="M 504.5,151.5 C 505.833,152.167 505.833,152.167 504.5,151.5 Z"/></g>
<g><path style="opacity:0.012" fill="#fefffe" d="M 493.5,156.5 C 494.833,157.167 494.833,157.167 493.5,156.5 Z"/></g>
<g><path style="opacity:0.027" fill="#fefffe" d="M 250.5,157.5 C 249.833,158.167 249.833,158.167 250.5,157.5 Z"/></g>
<g><path style="opacity:1" fill="#848484" d="M 515.5,62.5 C 516.776,64.5625 517.61,66.8958 518,69.5C 518.041,88.5135 517.374,107.513 516,126.5C 512.848,134.47 508.015,141.137 501.5,146.5C 494.85,148.266 488.183,150.099 481.5,152C 477.431,155.063 473.098,157.73 468.5,160C 459.518,159.42 450.518,159.086 441.5,159C 436.566,163.286 431.9,167.786 427.5,172.5C 417.965,174.7 408.298,175.7 398.5,175.5C 408.272,174.979 417.938,173.146 427.5,170C 432.023,166.233 436.357,162.233 440.5,158C 448.347,157.371 456.18,157.538 464,158.5C 465.833,158.333 467.667,158.167 469.5,158C 471.32,157.8 472.653,156.966 473.5,155.5C 475.27,154.236 476.937,152.736 478.5,151C 483.99,149.411 489.324,147.578 494.5,145.5C 499.289,144.74 503.456,142.74 507,139.5C 510.267,133.757 512.934,127.757 515,121.5C 515.833,107.667 516.667,93.8332 517.5,80C 517.549,74.0587 516.882,68.2254 515.5,62.5 Z"/></g>
<g><path style="opacity:0.024" fill="#fefffe" d="M 486.5,158.5 C 487.833,159.167 487.833,159.167 486.5,158.5 Z"/></g>
<g><path style="opacity:0.016" fill="#fefffe" d="M 480.5,162.5 C 481.833,163.167 481.833,163.167 480.5,162.5 Z"/></g>
<g><path style="opacity:0.847" fill="#e0e0e0" d="M 245.5,143.5 C 249.046,149.388 253.379,154.722 258.5,159.5C 258.869,161.441 259.536,163.275 260.5,165C 265.29,168.953 269.957,173.119 274.5,177.5C 277.966,179.489 281.632,180.989 285.5,182C 293.827,182.5 302.16,182.666 310.5,182.5C 317.989,183.329 325.656,183.829 333.5,184C 348.283,187.391 363.283,188.391 378.5,187C 384.668,185.586 390.668,183.586 396.5,181C 406.919,180.797 417.252,179.963 427.5,178.5C 428.547,179.078 428.38,179.744 427,180.5C 426.023,179.226 425.189,179.226 424.5,180.5C 420.316,180.851 416.316,181.518 412.5,182.5C 407.968,182.182 403.634,182.515 399.5,183.5C 397.339,183.509 396.006,184.176 395.5,185.5C 393.583,184.097 392.583,184.43 392.5,186.5C 391.508,186.328 390.842,186.662 390.5,187.5C 388.901,187.232 387.568,187.566 386.5,188.5C 384.585,188.216 382.919,188.549 381.5,189.5C 373.028,188.962 364.694,189.628 356.5,191.5C 353.358,189.881 350.025,189.215 346.5,189.5C 345.081,188.549 343.415,188.216 341.5,188.5C 339.393,187.532 337.059,187.198 334.5,187.5C 323.161,186.735 311.661,186.068 300,185.5C 294.206,186.175 288.372,186.008 282.5,185C 282.833,184.667 283.167,184.333 283.5,184C 281.187,183.338 278.854,182.838 276.5,182.5C 275.329,181.655 273.995,180.989 272.5,180.5C 271.811,179.226 270.977,179.226 270,180.5C 271.012,177.659 269.845,176.326 266.5,176.5C 264.145,175.23 261.811,173.397 259.5,171C 259.833,170.667 260.167,170.333 260.5,170C 258.951,168.786 257.785,167.286 257,165.5C 255.16,166.833 254.66,166.666 255.5,165C 255.018,163.54 253.851,162.04 252,160.5C 251.667,160.833 251.333,161.167 251,161.5C 251.331,159.981 251.164,158.648 250.5,157.5C 249.811,156.226 248.977,156.226 248,157.5C 247.383,156.551 247.549,155.718 248.5,155C 246.193,154.646 245.859,153.646 247.5,152C 247.389,150.278 246.889,150.112 246,151.5C 245.508,150.451 245.674,149.451 246.5,148.5C 245.975,147.808 245.308,147.308 244.5,147C 245.337,145.989 245.67,144.822 245.5,143.5 Z"/></g>
<g><path style="opacity:1" fill="#303030" d="M 448.5,153.5 C 444.727,153.263 441.06,153.763 437.5,155C 431.967,160.882 425.634,165.549 418.5,169C 409.5,169.333 400.5,169.667 391.5,170C 388.721,171.722 385.721,172.889 382.5,173.5C 384.41,171.438 386.743,169.938 389.5,169C 398.945,168.957 408.279,167.957 417.5,166C 424.238,163.771 428.238,159.271 429.5,152.5C 433.171,152.278 436.837,151.944 440.5,151.5C 443.486,151.382 446.152,152.048 448.5,153.5 Z"/></g>
<g><path style="opacity:0.008" fill="#fefffe" d="M 479.5,163.5 C 479.833,163.5 480.167,163.5 480.5,163.5C 480.315,164.17 479.981,164.17 479.5,163.5 Z"/></g>
<g><path style="opacity:1" fill="#6d6d6d" d="M 452.5,155.5 C 452.833,155.5 453.167,155.5 453.5,155.5C 460.037,156.774 466.704,156.774 473.5,155.5C 472.653,156.966 471.32,157.8 469.5,158C 467.667,158.167 465.833,158.333 464,158.5C 456.18,157.538 448.347,157.371 440.5,158C 436.357,162.233 432.023,166.233 427.5,170C 417.938,173.146 408.272,174.979 398.5,175.5C 398.167,175.5 397.833,175.5 397.5,175.5C 395.833,175.5 394.167,175.5 392.5,175.5C 393.749,173.864 395.416,172.697 397.5,172C 404.799,170.98 412.132,170.313 419.5,170C 426.634,166.549 432.967,161.882 438.5,156C 443.155,155.501 447.821,155.334 452.5,155.5 Z"/></g>
<g><path style="opacity:0.004" fill="#00fffe" d="M 669.5,164.5 C 670.833,165.167 670.833,165.167 669.5,164.5 Z"/></g>
<g><path style="opacity:0.004" fill="#fefffe" d="M 454.5,167.5 C 453.833,168.167 453.833,168.167 454.5,167.5 Z"/></g>
<g><path style="opacity:0.004" fill="#fefffe" d="M 472.5,167.5 C 473.833,168.167 473.833,168.167 472.5,167.5 Z"/></g>
<g><path style="opacity:0.008" fill="#fefffe" d="M 442.5,168.5 C 442.833,168.5 443.167,168.5 443.5,168.5C 443.315,169.17 442.981,169.17 442.5,168.5 Z"/></g>
<g><path style="opacity:0.008" fill="#fefffe" d="M 459.5,168.5 C 458.833,169.167 458.833,169.167 459.5,168.5 Z"/></g>
<g><path style="opacity:0.008" fill="#fefffe" d="M 468.5,168.5 C 469.833,169.167 469.833,169.167 468.5,168.5 Z"/></g>
<g><path style="opacity:1" fill="#a2a2a2" d="M 501.5,146.5 C 501.389,147.117 501.056,147.617 500.5,148C 495.594,149.652 490.594,150.985 485.5,152C 482.167,154 478.833,156 475.5,158C 474.091,160.879 471.757,162.545 468.5,163C 459.641,161.887 450.641,161.221 441.5,161C 436.956,165.089 432.289,168.922 427.5,172.5C 431.9,167.786 436.566,163.286 441.5,159C 450.518,159.086 459.518,159.42 468.5,160C 473.098,157.73 477.431,155.063 481.5,152C 488.183,150.099 494.85,148.266 501.5,146.5 Z"/></g>
<g><path style="opacity:0.012" fill="#fefffe" d="M 435.5,174.5 C 435.833,174.5 436.167,174.5 436.5,174.5C 436.315,175.17 435.981,175.17 435.5,174.5 Z"/></g>
<g><path style="opacity:0.004" fill="#fefffe" d="M 434.5,175.5 C 434.833,175.5 435.167,175.5 435.5,175.5C 435.315,176.17 434.981,176.17 434.5,175.5 Z"/></g>
<g><path style="opacity:0.004" fill="#fefffe" d="M 266.5,176.5 C 265.833,177.167 265.833,177.167 266.5,176.5 Z"/></g>
<g><path style="opacity:1" fill="#575757" d="M 352.5,177.5 C 362.746,177.826 373.079,177.826 383.5,177.5C 382.737,178.268 381.737,178.768 380.5,179C 374.667,179.167 368.833,179.333 363,179.5C 337.926,177.01 312.759,175.677 287.5,175.5C 284.422,175.38 281.755,174.38 279.5,172.5C 294.478,171.927 309.478,172.094 324.5,173C 330.791,173.073 336.791,174.406 342.5,177C 345.817,177.498 349.15,177.665 352.5,177.5 Z"/></g>
<g><path style="opacity:1" fill="#454545" d="M 448.5,153.5 C 450.153,153.66 451.486,154.326 452.5,155.5C 447.821,155.334 443.155,155.501 438.5,156C 432.967,161.882 426.634,166.549 419.5,170C 412.132,170.313 404.799,170.98 397.5,172C 395.416,172.697 393.749,173.864 392.5,175.5C 389.426,175.873 386.426,176.539 383.5,177.5C 373.079,177.826 362.746,177.826 352.5,177.5C 360.343,176.833 368.343,176.167 376.5,175.5C 378.304,174.232 380.304,173.565 382.5,173.5C 385.721,172.889 388.721,171.722 391.5,170C 400.5,169.667 409.5,169.333 418.5,169C 425.634,165.549 431.967,160.882 437.5,155C 441.06,153.763 444.727,153.263 448.5,153.5 Z"/></g>
<g><path style="opacity:0.024" fill="#fefffe" d="M 431.5,176.5 C 432.833,177.167 432.833,177.167 431.5,176.5 Z"/></g>
<g><path style="opacity:0.016" fill="#fefffe" d="M 430.5,177.5 C 430.833,177.5 431.167,177.5 431.5,177.5C 431.315,178.17 430.981,178.17 430.5,177.5 Z"/></g>
<g><path style="opacity:1" fill="#8f8f8f" d="M 273.5,170.5 C 275.5,171.167 277.5,171.833 279.5,172.5C 281.755,174.38 284.422,175.38 287.5,175.5C 302.315,176.842 317.315,177.675 332.5,178C 347.968,181.318 363.635,182.318 379.5,181C 384.154,179.666 388.487,177.833 392.5,175.5C 394.167,175.5 395.833,175.5 397.5,175.5C 391.859,177.887 386.192,180.387 380.5,183C 364.319,184.359 348.319,183.359 332.5,180C 316.5,179.667 300.5,179.333 284.5,179C 280.883,175.856 277.217,173.023 273.5,170.5 Z"/></g>
<g><path style="opacity:0.004" fill="#fefffe" d="M 272.5,180.5 C 271.833,181.167 271.833,181.167 272.5,180.5 Z"/></g>
<g><path style="opacity:0.004" fill="#fefffe" d="M 424.5,180.5 C 425.833,181.167 425.833,181.167 424.5,180.5 Z"/></g>
<g><path style="opacity:0.012" fill="#fefffe" d="M 276.5,182.5 C 275.833,183.167 275.833,183.167 276.5,182.5 Z"/></g>
<g><path style="opacity:0.008" fill="#fefffe" d="M 412.5,182.5 C 413.833,183.167 413.833,183.167 412.5,182.5 Z"/></g>
<g><path style="opacity:1" fill="#afafaf" d="M 258.5,159.5 C 262.565,164.373 267.565,168.04 273.5,170.5C 277.217,173.023 280.883,175.856 284.5,179C 300.5,179.333 316.5,179.667 332.5,180C 348.319,183.359 364.319,184.359 380.5,183C 386.192,180.387 391.859,177.887 397.5,175.5C 397.833,175.5 398.167,175.5 398.5,175.5C 408.298,175.7 417.965,174.7 427.5,172.5C 427.082,173.222 426.416,173.722 425.5,174C 410.485,174.182 396.485,177.848 383.5,185C 371.5,185.667 359.5,185.667 347.5,185C 335.27,182.865 322.937,182.032 310.5,182.5C 302.16,182.666 293.827,182.5 285.5,182C 281.632,180.989 277.966,179.489 274.5,177.5C 269.957,173.119 265.29,168.953 260.5,165C 259.536,163.275 258.869,161.441 258.5,159.5 Z"/></g>
<g><path style="opacity:1" fill="#6e6e6e" d="M 287.5,175.5 C 312.759,175.677 337.926,177.01 363,179.5C 368.833,179.333 374.667,179.167 380.5,179C 381.737,178.768 382.737,178.268 383.5,177.5C 386.426,176.539 389.426,175.873 392.5,175.5C 388.487,177.833 384.154,179.666 379.5,181C 363.635,182.318 347.968,181.318 332.5,178C 317.315,177.675 302.315,176.842 287.5,175.5 Z"/></g>
<g><path style="opacity:0.012" fill="#fefffe" d="M 399.5,183.5 C 400.833,184.167 400.833,184.167 399.5,183.5 Z"/></g>
<g><path style="opacity:0.004" fill="#fefffe" d="M 392.5,186.5 C 393.833,187.167 393.833,187.167 392.5,186.5 Z"/></g>
<g><path style="opacity:0.008" fill="#fefffe" d="M 334.5,187.5 C 333.833,188.167 333.833,188.167 334.5,187.5 Z"/></g>
<g><path style="opacity:0.004" fill="#fefffe" d="M 390.5,187.5 C 391.833,188.167 391.833,188.167 390.5,187.5 Z"/></g>
<g><path style="opacity:0.004" fill="#fefffe" d="M 341.5,188.5 C 340.833,189.167 340.833,189.167 341.5,188.5 Z"/></g>
<g><path style="opacity:0.008" fill="#fefffe" d="M 386.5,188.5 C 387.833,189.167 387.833,189.167 386.5,188.5 Z"/></g>
<g><path style="opacity:0.016" fill="#fefffe" d="M 346.5,189.5 C 345.833,190.167 345.833,190.167 346.5,189.5 Z"/></g>
<g><path style="opacity:0.004" fill="#fefffe" d="M 381.5,189.5 C 382.833,190.167 382.833,190.167 381.5,189.5 Z"/></g>
<g><path style="opacity:0.004" fill="#00fffe" d="M 647.5,230.5 C 646.833,231.167 646.833,231.167 647.5,230.5 Z"/></g>
<g><path style="opacity:0.004" fill="#00fffe" d="M 61.5,247.5 C 60.8333,246.167 60.8333,246.167 61.5,247.5 Z"/></g>
<g><path style="opacity:0.949" fill="#aeaeae" d="M 178.5,439.5 C 178.586,440.496 178.252,441.329 177.5,442C 167.801,447.847 158.134,453.68 148.5,459.5C 147.702,459.043 147.369,458.376 147.5,457.5C 147.617,447.492 147.283,437.659 146.5,428C 147.167,422.333 147.833,416.667 148.5,411C 148.284,388.393 148.284,365.727 148.5,343C 149.761,330.264 156.095,326.764 167.5,332.5C 168.083,334.002 168.916,335.335 170,336.5C 172.265,371.292 175.099,405.625 178.5,439.5 Z"/></g>
<g><path style="opacity:0.004" fill="#00fffe" d="M 109.5,345.5 C 110.833,346.167 110.833,346.167 109.5,345.5 Z"/></g>
<g><path style="opacity:0.881" fill="#030303" d="M 801.5,444.5 C 801.5,494.833 801.5,545.167 801.5,595.5C 798.071,610.428 788.737,619.595 773.5,623C 725.5,623.667 677.5,623.667 629.5,623C 617.201,620.707 608.368,613.874 603,602.5C 601.858,568.528 601.358,534.528 601.5,500.5C 601.358,466.472 601.858,432.472 603,398.5C 607.644,389.188 614.81,382.688 624.5,379C 661.128,377.365 697.794,377.032 734.5,378C 755.82,400.819 778.154,422.986 801.5,444.5 Z"/></g>
<g><path style="opacity:0.961" fill="#d5d5d5" d="M 181.5,477.5 C 175.459,480.695 169.792,484.528 164.5,489C 160.898,490.757 157.232,491.924 153.5,492.5C 150.026,491.502 147.026,489.668 144.5,487C 141.905,486.4 139.571,486.9 137.5,488.5C 132.353,484.021 128.353,478.687 125.5,472.5C 131.815,468.674 138.148,464.841 144.5,461C 145.636,459.855 146.636,458.688 147.5,457.5C 147.369,458.376 147.702,459.043 148.5,459.5C 158.134,453.68 167.801,447.847 177.5,442C 178.252,441.329 178.586,440.496 178.5,439.5C 208.599,422.645 237.932,405.145 266.5,387C 274.212,385.272 279.545,388.272 282.5,396C 281.768,400.072 279.768,403.405 276.5,406C 246.524,428.969 216.524,451.969 186.5,475C 184.548,475.366 182.882,476.199 181.5,477.5 Z"/></g>
<g><path style="opacity:0.999" fill="#f5f6f7" d="M 730.5,387.5 C 751.167,407.5 771.5,427.833 791.5,448.5C 788.375,449.479 785.042,449.813 781.5,449.5C 770.495,449.667 759.495,449.5 748.5,449C 734.417,443.356 728.084,432.856 729.5,417.5C 729.173,407.319 729.506,397.319 730.5,387.5 Z"/></g>
<g><path style="opacity:0.999" fill="#dadee2" d="M 736.5,402.5 C 750.299,415.798 763.965,429.298 777.5,443C 768.833,443.667 760.167,443.667 751.5,443C 743.78,441.614 738.947,437.114 737,429.5C 736.5,420.506 736.334,411.506 736.5,402.5 Z"/></g>
<g><path style="opacity:0.999" fill="#dce0e3" d="M 686.5,387.5 C 694.833,387.5 703.167,387.5 711.5,387.5C 713.628,390.13 715.961,392.63 718.5,395C 715.471,395.539 712.471,396.206 709.5,397C 712.961,400.84 716.794,404.34 721,407.5C 721.837,409.844 723.171,411.844 725,413.5C 725.984,420.826 726.817,428.159 727.5,435.5C 723.797,435.138 720.797,433.471 718.5,430.5C 717.914,430.709 717.414,431.043 717,431.5C 714.721,429.837 712.387,428.17 710,426.5C 709.667,426.833 709.333,427.167 709,427.5C 708.517,426.552 708.351,425.552 708.5,424.5C 705.632,424.915 703.465,423.915 702,421.5C 701.193,425.449 700.693,425.449 700.5,421.5C 698.801,421.66 697.134,421.494 695.5,421C 693.481,419.134 691.148,417.967 688.5,417.5C 687.006,417.709 685.839,418.376 685,419.5C 682.333,416.833 679.667,416.833 677,419.5C 674.333,416.833 671.667,416.833 669,419.5C 666.333,416.833 663.667,416.833 661,419.5C 658.333,416.833 655.667,416.833 653,419.5C 650.333,416.833 647.667,416.833 645,419.5C 642.333,416.833 639.667,416.833 637,419.5C 634.333,416.833 631.667,416.833 629,419.5C 626.333,416.833 623.667,416.833 621,419.5C 619.646,415.637 619.146,411.637 619.5,407.5C 621.756,401.416 626.089,397.583 632.5,396C 652.833,395.667 673.167,395.333 693.5,395C 690.961,392.63 688.628,390.13 686.5,387.5 Z"/></g>
<g><path style="opacity:1" fill="#75818c" d="M 628.5,387.5 C 662.5,386.167 696.5,386.167 730.5,387.5C 729.506,397.319 729.173,407.319 729.5,417.5C 727.488,409.098 726.321,400.431 726,391.5C 724.833,390.333 723.667,389.167 722.5,388C 718.848,387.501 715.182,387.335 711.5,387.5C 703.167,387.5 694.833,387.5 686.5,387.5C 667.167,387.5 647.833,387.5 628.5,387.5 Z"/></g>
<g><path style="opacity:1" fill="#bbc4cd" d="M 727.5,435.5 C 730.948,439.158 734.281,442.991 737.5,447C 742.197,449.512 747.197,451.179 752.5,452C 760.5,452.333 768.5,452.667 776.5,453C 782.309,456.549 787.642,460.716 792.5,465.5C 792.5,468.833 792.5,472.167 792.5,475.5C 783.855,469.699 776.189,462.532 769.5,454C 764.845,453.501 760.179,453.334 755.5,453.5C 749.467,454.035 743.801,452.868 738.5,450C 733.456,446.019 729.79,441.186 727.5,435.5 Z"/></g>
<g><path style="opacity:0.999" fill="#f2f3f4" d="M 628.5,387.5 C 647.833,387.5 667.167,387.5 686.5,387.5C 688.628,390.13 690.961,392.63 693.5,395C 673.167,395.333 652.833,395.667 632.5,396C 626.089,397.583 621.756,401.416 619.5,407.5C 618.339,422.328 618.172,437.328 619,452.5C 620.044,453.623 620.71,454.956 621,456.5C 621.483,455.552 621.649,454.552 621.5,453.5C 623.833,453.5 626.167,453.5 628.5,453.5C 628.833,457.5 629.167,457.5 629.5,453.5C 631.833,453.5 634.167,453.5 636.5,453.5C 636.833,457.5 637.167,457.5 637.5,453.5C 639.833,453.5 642.167,453.5 644.5,453.5C 644.833,457.5 645.167,457.5 645.5,453.5C 647.833,453.5 650.167,453.5 652.5,453.5C 652.833,457.5 653.167,457.5 653.5,453.5C 655.833,453.5 658.167,453.5 660.5,453.5C 660.833,457.5 661.167,457.5 661.5,453.5C 663.833,453.5 666.167,453.5 668.5,453.5C 668.833,457.5 669.167,457.5 669.5,453.5C 671.833,453.5 674.167,453.5 676.5,453.5C 676.833,457.5 677.167,457.5 677.5,453.5C 679.833,453.5 682.167,453.5 684.5,453.5C 684.833,457.5 685.167,457.5 685.5,453.5C 687.833,453.5 690.167,453.5 692.5,453.5C 692.833,457.5 693.167,457.5 693.5,453.5C 695.833,453.5 698.167,453.5 700.5,453.5C 700.833,457.5 701.167,457.5 701.5,453.5C 703.833,453.5 706.167,453.5 708.5,453.5C 708.833,457.5 709.167,457.5 709.5,453.5C 711.833,453.5 714.167,453.5 716.5,453.5C 716.833,457.5 717.167,457.5 717.5,453.5C 719.833,453.5 722.167,453.5 724.5,453.5C 724.693,457.449 725.193,457.449 726,453.5C 728.374,455.51 730.707,457.51 733,459.5C 733.519,458.484 734.353,457.818 735.5,457.5C 738.155,459.647 741.155,461.147 744.5,462C 749.64,465.153 754.64,468.487 759.5,472C 760.167,473 760.833,474 761.5,475C 766.673,476.852 771.339,479.519 775.5,483C 776.833,483.667 776.833,484.333 775.5,485C 779.066,485.7 781.9,487.533 784,490.5C 785.435,520.471 785.935,550.471 785.5,580.5C 785.813,584.042 785.479,587.375 784.5,590.5C 784.5,573.833 784.5,557.167 784.5,540.5C 784.667,528.162 784.5,515.829 784,503.5C 780.873,500.6 777.54,497.933 774,495.5C 772.957,499.226 772.457,498.893 772.5,494.5C 721.186,493.523 669.852,493.189 618.5,493.5C 618.5,509.167 618.5,524.833 618.5,540.5C 618.5,557.167 618.5,573.833 618.5,590.5C 617.502,566.006 617.169,541.339 617.5,516.5C 615.167,516.5 612.833,516.5 610.5,516.5C 610.191,478.476 610.524,440.476 611.5,402.5C 615.006,394.991 620.672,389.991 628.5,387.5 Z"/></g>
<g><path style="opacity:0.999" fill="#e7eaec" d="M 619.5,407.5 C 619.146,411.637 619.646,415.637 621,419.5C 623.667,416.833 626.333,416.833 629,419.5C 631.667,416.833 634.333,416.833 637,419.5C 639.667,416.833 642.333,416.833 645,419.5C 647.667,416.833 650.333,416.833 653,419.5C 655.667,416.833 658.333,416.833 661,419.5C 663.667,416.833 666.333,416.833 669,419.5C 671.667,416.833 674.333,416.833 677,419.5C 679.667,416.833 682.333,416.833 685,419.5C 685.839,418.376 687.006,417.709 688.5,417.5C 691.148,417.967 693.481,419.134 695.5,421C 697.134,421.494 698.801,421.66 700.5,421.5C 700.693,425.449 701.193,425.449 702,421.5C 703.465,423.915 705.632,424.915 708.5,424.5C 708.351,425.552 708.517,426.552 709,427.5C 709.333,427.167 709.667,426.833 710,426.5C 712.387,428.17 714.721,429.837 717,431.5C 717.414,431.043 717.914,430.709 718.5,430.5C 720.797,433.471 723.797,435.138 727.5,435.5C 729.79,441.186 733.456,446.019 738.5,450C 743.801,452.868 749.467,454.035 755.5,453.5C 767.751,464.125 780.085,474.792 792.5,485.5C 792.5,517.167 792.5,548.833 792.5,580.5C 791.5,580.5 790.5,580.5 789.5,580.5C 789.167,575.167 788.833,575.167 788.5,580.5C 787.5,580.5 786.5,580.5 785.5,580.5C 785.935,550.471 785.435,520.471 784,490.5C 781.9,487.533 779.066,485.7 775.5,485C 776.833,484.333 776.833,483.667 775.5,483C 771.339,479.519 766.673,476.852 761.5,475C 760.833,474 760.167,473 759.5,472C 754.64,468.487 749.64,465.153 744.5,462C 741.155,461.147 738.155,459.647 735.5,457.5C 734.353,457.818 733.519,458.484 733,459.5C 730.707,457.51 728.374,455.51 726,453.5C 725.193,457.449 724.693,457.449 724.5,453.5C 722.167,453.5 719.833,453.5 717.5,453.5C 717.167,457.5 716.833,457.5 716.5,453.5C 714.167,453.5 711.833,453.5 709.5,453.5C 709.167,457.5 708.833,457.5 708.5,453.5C 706.167,453.5 703.833,453.5 701.5,453.5C 701.167,457.5 700.833,457.5 700.5,453.5C 698.167,453.5 695.833,453.5 693.5,453.5C 693.167,457.5 692.833,457.5 692.5,453.5C 690.167,453.5 687.833,453.5 685.5,453.5C 685.167,457.5 684.833,457.5 684.5,453.5C 682.167,453.5 679.833,453.5 677.5,453.5C 677.167,457.5 676.833,457.5 676.5,453.5C 674.167,453.5 671.833,453.5 669.5,453.5C 669.167,457.5 668.833,457.5 668.5,453.5C 666.167,453.5 663.833,453.5 661.5,453.5C 661.167,457.5 660.833,457.5 660.5,453.5C 658.167,453.5 655.833,453.5 653.5,453.5C 653.167,457.5 652.833,457.5 652.5,453.5C 650.167,453.5 647.833,453.5 645.5,453.5C 645.167,457.5 644.833,457.5 644.5,453.5C 642.167,453.5 639.833,453.5 637.5,453.5C 637.167,457.5 636.833,457.5 636.5,453.5C 634.167,453.5 631.833,453.5 629.5,453.5C 629.167,457.5 628.833,457.5 628.5,453.5C 626.167,453.5 623.833,453.5 621.5,453.5C 621.649,454.552 621.483,455.552 621,456.5C 620.71,454.956 620.044,453.623 619,452.5C 618.172,437.328 618.339,422.328 619.5,407.5 Z"/></g>
<g><path style="opacity:1" fill="#a4b0bb" d="M 711.5,387.5 C 715.182,387.335 718.848,387.501 722.5,388C 723.667,389.167 724.833,390.333 726,391.5C 726.321,400.431 727.488,409.098 729.5,417.5C 728.084,432.856 734.417,443.356 748.5,449C 759.495,449.5 770.495,449.667 781.5,449.5C 780.048,450.302 778.382,450.802 776.5,451C 780.351,452.475 784.351,453.642 788.5,454.5C 789.521,456.188 790.855,457.521 792.5,458.5C 792.5,460.833 792.5,463.167 792.5,465.5C 787.642,460.716 782.309,456.549 776.5,453C 768.5,452.667 760.5,452.333 752.5,452C 747.197,451.179 742.197,449.512 737.5,447C 734.281,442.991 730.948,439.158 727.5,435.5C 726.817,428.159 725.984,420.826 725,413.5C 723.171,411.844 721.837,409.844 721,407.5C 716.794,404.34 712.961,400.84 709.5,397C 712.471,396.206 715.471,395.539 718.5,395C 715.961,392.63 713.628,390.13 711.5,387.5 Z"/></g>
<g><path style="opacity:0.999" fill="#768797" d="M 791.5,448.5 C 792.479,451.625 792.813,454.958 792.5,458.5C 790.855,457.521 789.521,456.188 788.5,454.5C 784.351,453.642 780.351,452.475 776.5,451C 778.382,450.802 780.048,450.302 781.5,449.5C 785.042,449.813 788.375,449.479 791.5,448.5 Z"/></g>
<g><path style="opacity:1" fill="#868686" d="M 160.5,456.5 C 172.891,455.721 178.058,461.387 176,473.5C 172.155,479.667 166.655,481.834 159.5,480C 152.93,476.345 150.763,470.845 153,463.5C 154.767,460.228 157.267,457.895 160.5,456.5 Z"/></g>
<g><path style="opacity:0.999" fill="#d3d9de" d="M 755.5,453.5 C 760.179,453.334 764.845,453.501 769.5,454C 776.189,462.532 783.855,469.699 792.5,475.5C 792.5,478.833 792.5,482.167 792.5,485.5C 780.085,474.792 767.751,464.125 755.5,453.5 Z"/></g>
<g><path style="opacity:0.954" fill="#b34a2f" d="M 125.5,472.5 C 128.353,478.687 132.353,484.021 137.5,488.5C 139.319,489.936 139.652,491.603 138.5,493.5C 122.597,505.689 107.597,517.523 93.5,529C 78.5267,539.647 63.86,550.647 49.5,562C 43.4398,564.558 37.2731,566.058 31,566.5C 25.2861,563.809 20.2861,560.143 16,555.5C 13.3333,551.5 10.6667,547.5 8,543.5C -1.60253,526.613 -1.10253,510.28 9.5,494.5C 15.7398,487.291 23.0732,482.291 31.5,479.5C 32.086,479.709 32.586,480.043 33,480.5C 35.4607,479.782 37.9607,479.115 40.5,478.5C 44.3985,478.705 48.3985,479.372 52.5,480.5C 53.9621,479.529 55.2954,479.862 56.5,481.5C 57.086,481.291 57.586,480.957 58,480.5C 64.173,481.702 70.173,483.369 76,485.5C 78.6093,485.224 81.276,485.224 84,485.5C 87.0757,484.712 90.2423,484.212 93.5,484C 103.144,481.06 112.311,475.894 121,468.5C 122.98,469.315 124.48,470.648 125.5,472.5 Z M 62.5,534.5 C 57.3318,539.955 51.4985,544.621 45,548.5C 44.6667,548.167 44.3333,547.833 44,547.5C 39.7943,550.562 35.2943,551.062 30.5,549C 19.0273,538.749 14.3606,526.916 16.5,513.5C 17.9292,510.099 19.9292,506.599 22.5,503C 31.6669,495.433 41.6669,494.1 52.5,499C 53.7158,500.74 55.3825,501.74 57.5,502C 58.7014,502.903 59.5348,504.069 60,505.5C 60.6667,504.167 61.3333,504.167 62,505.5C 64.5285,508.713 66.6952,512.213 68.5,516C 70.609,523.592 68.609,529.758 62.5,534.5 Z"/></g>
<g><path style="opacity:0.929" fill="#aeadad" d="M 181.5,477.5 C 182.711,481.662 183.044,485.829 182.5,490C 184.333,494.19 184.666,498.357 183.5,502.5C 176.932,503.809 170.266,503.809 163.5,502.5C 163.799,500.396 163.466,498.396 162.5,496.5C 159.471,495.16 156.471,493.827 153.5,492.5C 157.232,491.924 160.898,490.757 164.5,489C 169.792,484.528 175.459,480.695 181.5,477.5 Z"/></g>
<g><path style="opacity:1" fill="#484849" d="M 611.5,402.5 C 610.524,440.476 610.191,478.476 610.5,516.5C 610.5,542.833 610.5,569.167 610.5,595.5C 609.335,532.335 609.168,469.001 610,405.5C 610.232,404.263 610.732,403.263 611.5,402.5 Z"/></g>
<g><path style="opacity:0.999" fill="#f6f7f8" d="M 784.5,540.5 C 783.834,535.651 783.167,530.651 782.5,525.5C 781.193,533.394 780.527,533.394 780.5,525.5C 778.167,525.5 775.833,525.5 773.5,525.5C 773.167,533.5 772.833,533.5 772.5,525.5C 770.167,525.5 767.833,525.5 765.5,525.5C 765.167,533.5 764.833,533.5 764.5,525.5C 762.167,525.5 759.833,525.5 757.5,525.5C 757.167,533.5 756.833,533.5 756.5,525.5C 754.167,525.5 751.833,525.5 749.5,525.5C 749.167,533.5 748.833,533.5 748.5,525.5C 746.167,525.5 743.833,525.5 741.5,525.5C 741.167,533.5 740.833,533.5 740.5,525.5C 738.167,525.5 735.833,525.5 733.5,525.5C 733.167,533.5 732.833,533.5 732.5,525.5C 730.167,525.5 727.833,525.5 725.5,525.5C 725.167,533.5 724.833,533.5 724.5,525.5C 722.167,525.5 719.833,525.5 717.5,525.5C 717.167,533.5 716.833,533.5 716.5,525.5C 714.167,525.5 711.833,525.5 709.5,525.5C 709.167,533.5 708.833,533.5 708.5,525.5C 706.167,525.5 703.833,525.5 701.5,525.5C 701.167,533.5 700.833,533.5 700.5,525.5C 698.167,525.5 695.833,525.5 693.5,525.5C 693.167,533.5 692.833,533.5 692.5,525.5C 690.167,525.5 687.833,525.5 685.5,525.5C 685.167,533.5 684.833,533.5 684.5,525.5C 682.167,525.5 679.833,525.5 677.5,525.5C 677.167,533.5 676.833,533.5 676.5,525.5C 674.167,525.5 671.833,525.5 669.5,525.5C 669.167,533.5 668.833,533.5 668.5,525.5C 666.167,525.5 663.833,525.5 661.5,525.5C 661.167,533.5 660.833,533.5 660.5,525.5C 658.167,525.5 655.833,525.5 653.5,525.5C 653.167,533.5 652.833,533.5 652.5,525.5C 650.167,525.5 647.833,525.5 645.5,525.5C 645.167,533.5 644.833,533.5 644.5,525.5C 642.167,525.5 639.833,525.5 637.5,525.5C 637.167,533.5 636.833,533.5 636.5,525.5C 634.167,525.5 631.833,525.5 629.5,525.5C 629.167,533.5 628.833,533.5 628.5,525.5C 626.167,525.5 623.833,525.5 621.5,525.5C 621.326,533.473 620.826,533.473 620,525.5C 619.826,530.684 619.326,535.684 618.5,540.5C 618.5,524.833 618.5,509.167 618.5,493.5C 669.852,493.189 721.186,493.523 772.5,494.5C 772.457,498.893 772.957,499.226 774,495.5C 777.54,497.933 780.873,500.6 784,503.5C 784.5,515.829 784.667,528.162 784.5,540.5 Z"/></g>
<g><path style="opacity:0.954" fill="#b34a2f" d="M 163.5,502.5 C 170.266,503.809 176.932,503.809 183.5,502.5C 186.347,501.395 188.68,502.228 190.5,505C 188.157,517.829 190.491,530.329 197.5,542.5C 206.328,552.46 215.828,561.793 226,570.5C 231.322,577.285 234.822,584.951 236.5,593.5C 237.234,612.224 228.567,626.39 210.5,636C 205.475,637.105 200.475,638.271 195.5,639.5C 189.838,639.057 183.838,638.891 177.5,639C 169.874,638.517 164.207,635.017 160.5,628.5C 158.962,623.887 157.629,619.221 156.5,614.5C 157.557,604.109 157.557,593.776 156.5,583.5C 157.145,577.968 157.812,572.468 158.5,567C 158.242,561.917 157.909,556.75 157.5,551.5C 158.149,544.636 158.816,537.802 159.5,531C 159.167,527.333 158.833,523.667 158.5,520C 159.167,516 159.833,512 160.5,508C 159.826,506.249 159.493,504.583 159.5,503C 160.682,501.232 162.015,501.065 163.5,502.5 Z M 181.5,573.5 C 194.094,571.777 205.261,575.11 215,583.5C 217.041,587.965 218.874,592.465 220.5,597C 220.023,600.822 219.523,604.656 219,608.5C 212.508,618.078 203.841,623.745 193,625.5C 188.958,624.458 184.958,624.458 181,625.5C 177.475,624.562 174.808,622.562 173,619.5C 171.526,615.578 170.359,611.578 169.5,607.5C 169.085,602.322 169.752,596.988 171.5,591.5C 170.653,589.939 170.986,588.439 172.5,587C 172.5,585.333 172.5,583.667 172.5,582C 175.068,578.596 178.068,575.763 181.5,573.5 Z"/></g>
<g><path style="opacity:0.999" fill="#fcfdfd" d="M 784.5,540.5 C 784.5,557.167 784.5,573.833 784.5,590.5C 782.682,598.483 777.682,603.316 769.5,605C 724.167,605.667 678.833,605.667 633.5,605C 625.353,603.352 620.353,598.519 618.5,590.5C 618.5,573.833 618.5,557.167 618.5,540.5C 619.326,535.684 619.826,530.684 620,525.5C 620.826,533.473 621.326,533.473 621.5,525.5C 623.833,525.5 626.167,525.5 628.5,525.5C 628.833,533.5 629.167,533.5 629.5,525.5C 631.833,525.5 634.167,525.5 636.5,525.5C 636.833,533.5 637.167,533.5 637.5,525.5C 639.833,525.5 642.167,525.5 644.5,525.5C 644.833,533.5 645.167,533.5 645.5,525.5C 647.833,525.5 650.167,525.5 652.5,525.5C 652.833,533.5 653.167,533.5 653.5,525.5C 655.833,525.5 658.167,525.5 660.5,525.5C 660.833,533.5 661.167,533.5 661.5,525.5C 663.833,525.5 666.167,525.5 668.5,525.5C 668.833,533.5 669.167,533.5 669.5,525.5C 671.833,525.5 674.167,525.5 676.5,525.5C 676.833,533.5 677.167,533.5 677.5,525.5C 679.833,525.5 682.167,525.5 684.5,525.5C 684.833,533.5 685.167,533.5 685.5,525.5C 687.833,525.5 690.167,525.5 692.5,525.5C 692.833,533.5 693.167,533.5 693.5,525.5C 695.833,525.5 698.167,525.5 700.5,525.5C 700.833,533.5 701.167,533.5 701.5,525.5C 703.833,525.5 706.167,525.5 708.5,525.5C 708.833,533.5 709.167,533.5 709.5,525.5C 711.833,525.5 714.167,525.5 716.5,525.5C 716.833,533.5 717.167,533.5 717.5,525.5C 719.833,525.5 722.167,525.5 724.5,525.5C 724.833,533.5 725.167,533.5 725.5,525.5C 727.833,525.5 730.167,525.5 732.5,525.5C 732.833,533.5 733.167,533.5 733.5,525.5C 735.833,525.5 738.167,525.5 740.5,525.5C 740.833,533.5 741.167,533.5 741.5,525.5C 743.833,525.5 746.167,525.5 748.5,525.5C 748.833,533.5 749.167,533.5 749.5,525.5C 751.833,525.5 754.167,525.5 756.5,525.5C 756.833,533.5 757.167,533.5 757.5,525.5C 759.833,525.5 762.167,525.5 764.5,525.5C 764.833,533.5 765.167,533.5 765.5,525.5C 767.833,525.5 770.167,525.5 772.5,525.5C 772.833,533.5 773.167,533.5 773.5,525.5C 775.833,525.5 778.167,525.5 780.5,525.5C 780.527,533.394 781.193,533.394 782.5,525.5C 783.167,530.651 783.834,535.651 784.5,540.5 Z"/></g>
<g><path style="opacity:0.976" fill="#2ea3f2" d="M 526.5,568.5 C 530.031,569.23 533.697,569.896 537.5,570.5C 539.423,570.37 541.256,570.036 543,569.5C 543.68,596.826 544.347,624.16 545,651.5C 543.506,652.747 542.006,652.747 540.5,651.5C 531.503,643.757 522.503,636.757 513.5,630.5C 506.583,635.21 499.416,639.544 492,643.5C 490.984,642.366 490.317,642.699 490,644.5C 489.667,644.167 489.333,643.833 489,643.5C 481.276,647.228 473.609,650.228 466,652.5C 464.333,652.5 462.667,652.5 461,652.5C 460.005,653.066 459.172,653.733 458.5,654.5C 456.968,653.63 455.468,653.964 454,655.5C 453.667,655.167 453.333,654.833 453,654.5C 446.499,656.288 439.833,657.622 433,658.5C 431.333,658.167 429.667,657.833 428,657.5C 425.723,658.117 423.556,658.784 421.5,659.5C 421.167,659.5 420.833,659.5 420.5,659.5C 420.167,658.167 419.833,658.167 419.5,659.5C 419.167,659.5 418.833,659.5 418.5,659.5C 415.167,658.167 411.833,658.167 408.5,659.5C 408.167,659.5 407.833,659.5 407.5,659.5C 407.167,658.167 406.833,658.167 406.5,659.5C 406.167,659.5 405.833,659.5 405.5,659.5C 405.167,658.167 404.833,658.167 404.5,659.5C 404.167,659.5 403.833,659.5 403.5,659.5C 397.323,658.095 391.157,657.095 385,656.5C 383.249,657.174 381.583,657.507 380,657.5C 375.265,656.334 370.265,655 365,653.5C 330.491,647.509 299.325,632.343 271.5,608C 284.381,599.469 297.548,591.302 311,583.5C 311.333,583.833 311.667,584.167 312,584.5C 316.685,580.99 321.685,577.99 327,575.5C 333.409,581.229 340.409,586.229 348,590.5C 348.333,590.167 348.667,589.833 349,589.5C 355.177,593.454 361.843,596.454 369,598.5C 369.333,598.167 369.667,597.833 370,597.5C 372.168,599.455 374.502,600.121 377,599.5C 380.246,600.818 383.58,601.818 387,602.5C 388,602.167 389,601.833 390,601.5C 391.333,602.167 392.667,602.833 394,603.5C 399.252,602.421 404.918,602.421 411,603.5C 414.648,601.926 417.981,601.593 421,602.5C 434.336,600.051 447.17,595.551 459.5,589C 449.951,582.399 440.618,575.566 431.5,568.5C 430.571,567.311 430.238,565.978 430.5,564.5C 432.773,563.265 434.606,563.598 436,565.5C 437.569,564.878 439.236,564.544 441,564.5C 447.407,564.98 453.74,565.646 460,566.5C 464.571,565.678 468.904,565.344 473,565.5C 474.333,566.167 475.667,566.833 477,567.5C 482.686,567.106 488.686,566.773 495,566.5C 496.333,567.167 497.667,567.833 499,568.5C 502.667,568.167 506.333,567.833 510,567.5C 512.667,568.167 515.333,568.833 518,569.5C 520.466,569.37 523.3,569.037 526.5,568.5 Z"/></g>
<g><path style="opacity:0.004" fill="#00fffe" d="M 526.5,567.5 C 527.833,568.167 527.833,568.167 526.5,567.5 Z"/></g>
<g><path style="opacity:1" fill="#d5d8dc" d="M 610.5,516.5 C 612.833,516.5 615.167,516.5 617.5,516.5C 617.169,541.339 617.502,566.006 618.5,590.5C 620.353,598.519 625.353,603.352 633.5,605C 678.833,605.667 724.167,605.667 769.5,605C 777.682,603.316 782.682,598.483 784.5,590.5C 785.479,587.375 785.813,584.042 785.5,580.5C 786.5,580.5 787.5,580.5 788.5,580.5C 788.833,575.167 789.167,575.167 789.5,580.5C 790.5,580.5 791.5,580.5 792.5,580.5C 795.64,597.743 788.973,608.91 772.5,614C 724.5,614.667 676.5,614.667 628.5,614C 619.557,610.559 613.557,604.392 610.5,595.5C 610.5,569.167 610.5,542.833 610.5,516.5 Z"/></g>
<g><path style="opacity:0.004" fill="#00fffe" d="M 458.5,654.5 C 459.833,655.167 459.833,655.167 458.5,654.5 Z"/></g>
</svg>
